<svg id="Layer_1" data-name="Layer 1" xmlns="http://www.w3.org/2000/svg" xmlns:xlink="http://www.w3.org/1999/xlink" viewBox="0 0 4000 3000"><defs><clipPath id="clip-path"><rect x="1368.89" y="1933.81" width="441.91" height="345.63" rx="5.06" style="fill:none"/></clipPath><linearGradient id="linear-gradient" x1="942.53" y1="1247.18" x2="942.53" y2="1803.47" gradientTransform="matrix(0.67, -0.75, 0.75, 0.67, -216.38, 1699.38)" gradientUnits="userSpaceOnUse"><stop offset="0" stop-color="#fff"/><stop offset="0.1" stop-color="#fff" stop-opacity="0.98"/><stop offset="0.22" stop-color="#fff" stop-opacity="0.92"/><stop offset="0.36" stop-color="#fff" stop-opacity="0.82"/><stop offset="0.5" stop-color="#fff" stop-opacity="0.68"/><stop offset="0.65" stop-color="#fff" stop-opacity="0.51"/><stop offset="0.81" stop-color="#fff" stop-opacity="0.29"/><stop offset="0.97" stop-color="#fff" stop-opacity="0.04"/><stop offset="0.99" stop-color="#fff" stop-opacity="0"/></linearGradient><linearGradient id="linear-gradient-2" x1="1042.05" y1="1416.49" x2="1042.05" y2="1933.3" gradientTransform="matrix(0.67, -0.75, 0.75, 0.67, -269.58, 1803.4)" xlink:href="#linear-gradient"/><clipPath id="clip-path-2"><rect x="2213.26" y="1933.81" width="441.91" height="345.63" rx="5.06" style="fill:none"/></clipPath><linearGradient id="linear-gradient-3" x1="1773.3" y1="1398.12" x2="1773.3" y2="1954.42" gradientTransform="translate(-37.82 2218.66) rotate(-48.25)" xlink:href="#linear-gradient"/><linearGradient id="linear-gradient-4" x1="1872.83" y1="1567.44" x2="1872.83" y2="2084.25" gradientTransform="translate(-91.02 2322.68) rotate(-48.25)" xlink:href="#linear-gradient"/><clipPath id="clip-path-3"><rect x="1376.56" y="1159.44" width="255.66" height="218.75" rx="10.35" style="fill:none"/></clipPath><linearGradient id="linear-gradient-5" x1="1006.88" y1="540.34" x2="1006.88" y2="938.83" gradientTransform="matrix(0.67, -0.75, 0.75, 0.67, 249.82, 1486.02)" xlink:href="#linear-gradient"/><linearGradient id="linear-gradient-6" x1="1078.17" y1="661.62" x2="1078.17" y2="1031.83" gradientTransform="translate(211.71 1560.53) rotate(-48.25)" xlink:href="#linear-gradient"/><clipPath id="clip-path-4"><rect x="1717.18" y="1159.44" width="255.66" height="218.75" rx="10.35" style="fill:none"/></clipPath><linearGradient id="linear-gradient-7" x1="1342" y1="601.23" x2="1342" y2="999.72" gradientTransform="matrix(0.67, -0.75, 0.75, 0.67, 321.84, 1695.49)" xlink:href="#linear-gradient"/><linearGradient id="linear-gradient-8" x1="1413.3" y1="722.51" x2="1413.3" y2="1092.72" gradientTransform="translate(283.73 1770) rotate(-48.25)" xlink:href="#linear-gradient"/><clipPath id="clip-path-5"><rect x="2057.79" y="1159.44" width="255.66" height="218.75" rx="10.35" style="fill:none"/></clipPath><linearGradient id="linear-gradient-9" x1="1677.13" y1="662.12" x2="1677.13" y2="1060.61" gradientTransform="matrix(0.67, -0.75, 0.75, 0.67, 393.87, 1904.96)" xlink:href="#linear-gradient"/><linearGradient id="linear-gradient-10" x1="1748.42" y1="783.4" x2="1748.42" y2="1153.61" gradientTransform="translate(355.76 1979.48) rotate(-48.25)" xlink:href="#linear-gradient"/><clipPath id="clip-path-6"><rect x="2398.4" y="1159.44" width="255.66" height="218.75" rx="10.35" style="fill:none"/></clipPath><linearGradient id="linear-gradient-11" x1="2012.25" y1="723.01" x2="2012.25" y2="1121.51" gradientTransform="translate(465.9 2114.43) rotate(-48.25)" xlink:href="#linear-gradient"/><linearGradient id="linear-gradient-12" x1="2083.55" y1="844.3" x2="2083.55" y2="1214.51" gradientTransform="matrix(0.67, -0.75, 0.75, 0.67, 427.79, 2188.95)" xlink:href="#linear-gradient"/></defs><rect width="4000" height="3000" style="fill:#fff"/><g style="opacity:0.30000000000000004"><path d="M3470.8,2496.34c0-27.45-658.5-49.7-1470.8-49.7s-1470.8,22.25-1470.8,49.7c0,15.87,220,30,562.65,39.1,73.92,17.79,360.55,31,702.87,31,286.67,0,534.27-9.3,650.63-22.77C3039.93,2537.34,3470.8,2518.54,3470.8,2496.34Z" style="fill:#6d4c41"/></g><path d="M2719.72,2453C2975,2244.3,3138,1927,3138,1571.51c0-628.5-509.5-1138-1138-1138S862,943,862,1571.51C862,1927,1025,2244.3,1280.28,2453c212.77-4,458.25-6.35,719.72-6.35S2507,2448.94,2719.72,2453Z" style="fill:#e7c0ff"/><g style="opacity:0.2"><path d="M2719.72,2453a1143,1143,0,0,0,290.34-356.83,104.86,104.86,0,0,0-182.87,28q-2.4-.15-4.77-.15c-.71,0-1.4.09-2.11.11V1889.74c39.4-11.84,67.82-44.64,67.82-83.17v-66.15a13.16,13.16,0,0,0-1.47-6l-66.35-128.26V1080.32a61.24,61.24,0,0,0-6.56-122.13H1304.37a61.25,61.25,0,0,0,0,122.5h6.57v105h-48.13v-12.62a55.25,55.25,0,0,0-55.19-55.19h-77.74a55.25,55.25,0,0,0-55.19,55.19v357.74a55.25,55.25,0,0,0,55.19,55.19h77.74a55.25,55.25,0,0,0,55.19-55.19v-12.62h48.13v88l-66.35,128.25a13.16,13.16,0,0,0-1.47,6v66.15c0,38.53,28.42,71.33,67.82,83.17v365.71a174.57,174.57,0,0,0-235.59-20.63A1144.83,1144.83,0,0,0,1280.28,2453c212.77-4,458.25-6.35,719.72-6.35S2507,2448.94,2719.72,2453ZM1310.94,1487.56h-48.13V1216.31h48.13Z" style="fill:#6d4c41"/></g><path d="M3334.65,2478.06H665.35a14.87,14.87,0,0,1,0-29.74h2669.3a14.87,14.87,0,0,1,0,29.74Z" style="fill:#6d4c41"/><path d="M1138.12,2194.13A161.82,161.82,0,0,0,1015,2461h246.29a161.82,161.82,0,0,0-123.15-266.87Z" style="fill:#8bc34a"/><path d="M1261.27,2474.13H1015a13.13,13.13,0,0,1-10-4.61A175,175,0,0,1,963.12,2356c0-96.49,78.51-175,175-175s175,78.51,175,175a175,175,0,0,1-41.86,113.52A13.15,13.15,0,0,1,1261.27,2474.13Zm-240.08-26.25h233.87a148.72,148.72,0,0,0,31.81-91.88c0-82-66.72-148.75-148.75-148.75S989.37,2274,989.37,2356A148.77,148.77,0,0,0,1021.19,2447.88Z" style="fill:#6d4c41"/><g style="opacity:0.2"><path d="M1230,2226.94s-17.5,196.87-275.63,170.62l31.57,64.84h232.6v-61.85l22.65-31.36s43.5-8.81,43.5-13.19-8.75-96.25-8.75-96.25Z" style="fill:#6d4c41"/></g><g style="opacity:0.5"><path d="M1002.5,2371.31c0-82,66.73-148.75,148.75-148.75a148.28,148.28,0,0,1,106.23,44.77,148.62,148.62,0,0,0-119.36-60.08c-82,0-148.75,66.73-148.75,148.75a148.75,148.75,0,0,0,31.82,91.88h2.56A148.74,148.74,0,0,1,1002.5,2371.31Z" style="fill:#fff"/></g><path d="M1074.69,2419.44A126.88,126.88,0,1,0,827.94,2461h239.75A126.79,126.79,0,0,0,1074.69,2419.44Z" style="fill:#8bc34a"/><path d="M1067.68,2474.13H827.94a13.13,13.13,0,0,1-12.4-8.83,139.62,139.62,0,0,1-7.73-45.86c0-77.2,62.8-140,140-140s140,62.8,140,140a139.88,139.88,0,0,1-7.72,45.86A13.14,13.14,0,0,1,1067.68,2474.13Zm-230-26.25H1058a113.75,113.75,0,1,0-220.28,0Z" style="fill:#6d4c41"/><g style="opacity:0.5"><path d="M947.81,2305.69a113.76,113.76,0,0,0-110.14,142.19h10.92a114.94,114.94,0,0,1-1.4-17.5,113.08,113.08,0,0,1,15.5-57.23c9.66-2.72,20.46-8.07,30.82-15.79,14-10.47,24.13-23,28.48-33.86a113.56,113.56,0,0,1,104.9,14.28A113.36,113.36,0,0,0,947.81,2305.69Z" style="fill:#fff"/></g><path d="M3150.63,2428.94a148.34,148.34,0,0,0-193.81-141.17,189.26,189.26,0,0,0-177-122.21c-104.51,0-189.22,84.72-189.22,189.22A188.31,188.31,0,0,0,2623.24,2461h523.87A148.57,148.57,0,0,0,3150.63,2428.94Z" style="fill:#8bc34a"/><path d="M3147.11,2474.13H2623.24a13.14,13.14,0,0,1-10.85-5.75,201.28,201.28,0,0,1-34.89-113.6c0-111.58,90.77-202.35,202.35-202.35,79.54,0,152.27,47.57,184.64,119.55a161.26,161.26,0,0,1,37.82-4.48c89,0,161.44,72.42,161.44,161.44a162.63,162.63,0,0,1-3.82,34.89A13.14,13.14,0,0,1,3147.11,2474.13Zm-516.76-26.25h505.81a135.53,135.53,0,0,0,1.34-18.94c0-74.54-60.65-135.19-135.19-135.19a135,135,0,0,0-41.47,6.51,13.12,13.12,0,0,1-16.3-7.85c-25.77-68-92-113.73-164.69-113.73-97.1,0-176.1,79-176.1,176.1A175.13,175.13,0,0,0,2630.35,2447.88Z" style="fill:#6d4c41"/><g style="opacity:0.2"><path d="M2839.11,2314.87a34.26,34.26,0,0,0-34.23,34.23V2461h147.34V2349.1a34.26,34.26,0,0,0-34.23-34.23h-29.34V2260a104.57,104.57,0,0,0,55.31.62A189.34,189.34,0,0,0,2741,2169.56a80.8,80.8,0,0,0,125.74,96.3v49Z" style="fill:#6d4c41"/></g><g style="opacity:0.5"><path d="M3002.32,2293.75a135.06,135.06,0,0,0-41.48,6.51,13.12,13.12,0,0,1-16.3-7.85c-25.77-68-91.95-113.73-164.69-113.73-76.24,0-141.3,48.71-165.74,116.63,27.22-62.14,89.29-105.69,161.36-105.69,72.74,0,138.93,45.71,164.7,113.73a13.12,13.12,0,0,0,16.3,7.85,135,135,0,0,1,41.47-6.51c74.54,0,135.19,60.64,135.19,135.18,0,2.66-.13,5.34-.29,8h3.31a134.25,134.25,0,0,0,1.35-18.94C3137.5,2354.39,3076.86,2293.75,3002.32,2293.75Z" style="fill:#fff"/></g><rect x="1280.31" y="1030.38" width="1483.13" height="1426.25" style="fill:#ffe082"/><path d="M2763.44,2469.75H1280.31a13.11,13.11,0,0,1-13.12-13.12V1030.37a13.12,13.12,0,0,1,13.12-13.12H2763.44a13.12,13.12,0,0,1,13.12,13.12V2456.63A13.11,13.11,0,0,1,2763.44,2469.75Zm-1470-26.25H2750.31v-1400H1293.44Z" style="fill:#6d4c41"/><g style="opacity:0.2"><path d="M2842.91,1756.26l-117.7-227.51a43.72,43.72,0,0,0-39-23.72H1357.51a43.72,43.72,0,0,0-39,23.72l-117.7,227.51a13.16,13.16,0,0,0-1.47,6v66.15c0,48.47,44.94,87.91,100.17,87.91,37.94,0,71-18.6,88-45.95,18.16,27.45,52,45.95,90.77,45.95s72.84-18.62,91-46.22c17.17,27.52,50.48,46.22,88.69,46.22,38.64,0,72.3-19.15,89.28-47.2,18.68,28.2,53.52,47.2,93.33,47.2,39.62,0,74.32-18.82,93.07-46.79,16.72,27.8,50,46.79,88.24,46.79s71.51-19,88.23-46.79c18.75,28,53.45,46.79,93.07,46.79,39.81,0,74.65-19,93.33-47.2,17,28,50.64,47.2,89.29,47.2,38.2,0,71.51-18.7,88.68-46.22,18.11,27.6,52.1,46.22,90.95,46.22s72.61-18.5,90.77-45.95c17,27.35,50.07,45.95,88,45.95,55.23,0,100.17-39.44,100.17-87.91v-66.15A13.16,13.16,0,0,0,2842.91,1756.26Z" style="fill:#6d4c41"/></g><g style="opacity:0.2"><rect x="1317.5" y="2246.63" width="544.69" height="83.13" rx="38.44" style="fill:#6d4c41"/></g><g style="opacity:0.5"><polygon points="1317.5 1045.69 2750.31 1045.69 2750.31 1043.5 1293.44 1043.5 1293.44 2443.5 1317.5 2443.5 1317.5 1045.69" style="fill:#fff"/></g><g style="opacity:0.2"><polygon points="1280.31 1030.38 1280.31 1032.56 2704.38 1032.56 2704.38 1050.06 1278.13 1050.06 1278.13 1098.19 2704.38 1124.44 2704.38 2456.63 2763.44 2456.63 2763.44 1030.38 1280.31 1030.38" style="fill:#6d4c41"/></g><rect x="1212.5" y="953.81" width="1605.63" height="96.25" rx="48.12" style="fill:#707070"/><path d="M2770,1063.19H1260.62a61.25,61.25,0,0,1,0-122.5H2770a61.25,61.25,0,0,1,0,122.5ZM1260.62,966.94a35,35,0,0,0,0,70H2770a35,35,0,0,0,0-70Z" style="fill:#6d4c41"/><g style="opacity:0.5"><path d="M1243.12,1015.06a35,35,0,0,1,35-35H2787.5a35,35,0,0,1,11.17,1.86,35,35,0,0,0-28.67-15H1260.62a35,35,0,0,0-11.17,68.14A34.83,34.83,0,0,1,1243.12,1015.06Z" style="fill:#fff"/></g><rect x="1365.62" y="1148.5" width="277.54" height="240.63" rx="21.29" style="fill:#80deea"/><path d="M1621.88,1400.06h-235a32.25,32.25,0,0,1-32.22-32.22v-198a32.26,32.26,0,0,1,32.22-32.23h235a32.26,32.26,0,0,1,32.22,32.23v198A32.25,32.25,0,0,1,1621.88,1400.06Zm-235-240.62a10.36,10.36,0,0,0-10.35,10.35v198a10.36,10.36,0,0,0,10.35,10.35h235a10.36,10.36,0,0,0,10.35-10.35v-198a10.36,10.36,0,0,0-10.35-10.35Z" style="fill:#6d4c41"/><rect x="1706.24" y="1148.5" width="277.54" height="240.63" rx="21.29" style="fill:#80deea"/><path d="M1962.49,1400.06h-235a32.25,32.25,0,0,1-32.22-32.22v-198a32.26,32.26,0,0,1,32.22-32.23h235a32.26,32.26,0,0,1,32.22,32.23v198A32.25,32.25,0,0,1,1962.49,1400.06Zm-235-240.62a10.36,10.36,0,0,0-10.34,10.35v198a10.36,10.36,0,0,0,10.34,10.35h235a10.36,10.36,0,0,0,10.35-10.35v-198a10.36,10.36,0,0,0-10.35-10.35Z" style="fill:#6d4c41"/><rect x="2046.85" y="1148.5" width="277.54" height="240.63" rx="21.29" style="fill:#80deea"/><path d="M2303.1,1400.06h-235a32.26,32.26,0,0,1-32.22-32.22v-198a32.27,32.27,0,0,1,32.22-32.23h235a32.27,32.27,0,0,1,32.23,32.23v198A32.26,32.26,0,0,1,2303.1,1400.06Zm-235-240.62a10.36,10.36,0,0,0-10.34,10.35v198a10.36,10.36,0,0,0,10.34,10.35h235a10.36,10.36,0,0,0,10.35-10.35v-198a10.36,10.36,0,0,0-10.35-10.35Z" style="fill:#6d4c41"/><rect x="2387.46" y="1148.5" width="277.54" height="240.63" rx="21.29" style="fill:#80deea"/><path d="M2643.71,1400.06h-235a32.25,32.25,0,0,1-32.22-32.22v-198a32.26,32.26,0,0,1,32.22-32.23h235a32.27,32.27,0,0,1,32.23,32.23v198A32.26,32.26,0,0,1,2643.71,1400.06Zm-235-240.62a10.36,10.36,0,0,0-10.35,10.35v198a10.36,10.36,0,0,0,10.35,10.35h235a10.36,10.36,0,0,0,10.35-10.35v-198a10.36,10.36,0,0,0-10.35-10.35Z" style="fill:#6d4c41"/><rect x="1357.95" y="1922.88" width="463.79" height="367.5" rx="16" style="fill:#80deea"/><path d="M1805.74,2301.31h-431.8a27,27,0,0,1-26.92-26.93V1938.87a27,27,0,0,1,26.92-26.93h431.8a27,27,0,0,1,26.93,26.93v335.51A27,27,0,0,1,1805.74,2301.31Zm-431.8-367.5a5.07,5.07,0,0,0-5,5.06v335.51a5.06,5.06,0,0,0,5,5.06h431.8a5.07,5.07,0,0,0,5.06-5.06V1938.87a5.07,5.07,0,0,0-5.06-5.06Z" style="fill:#6d4c41"/><g style="clip-path:url(#clip-path)"><rect x="1490.65" y="1659.81" width="117.11" height="704.21" transform="translate(1564.9 -527.3) rotate(37.95)" style="opacity:0.6000000000000001;fill:url(#linear-gradient)"/><rect x="1641.78" y="1789.18" width="64.18" height="704.21" transform="matrix(0.79, 0.61, -0.61, 0.79, 1670.82, -576.61)" style="opacity:0.6000000000000001;fill:url(#linear-gradient-2)"/></g><g style="opacity:0.2"><path d="M1359.15,1995.75a16,16,0,0,1,16-16h431.8a16,16,0,0,1,14.8,10v-50.85a16,16,0,0,0-16-16H1374a16,16,0,0,0-16,16v335.51a15.9,15.9,0,0,0,1.2,6Z" style="fill:#6d4c41"/></g><rect x="1328.44" y="2235.69" width="522.81" height="61.25" rx="27.5" style="fill:#fff"/><path d="M1823.75,2307.88H1355.94a38.49,38.49,0,0,1-38.44-38.45v-6.24a38.48,38.48,0,0,1,38.44-38.44h467.81a38.48,38.48,0,0,1,38.44,38.44v6.24A38.49,38.49,0,0,1,1823.75,2307.88Zm-467.81-61.25a16.59,16.59,0,0,0-16.57,16.56v6.24a16.59,16.59,0,0,0,16.57,16.57h467.81a16.58,16.58,0,0,0,16.56-16.57v-6.24a16.58,16.58,0,0,0-16.56-16.56Z" style="fill:#6d4c41"/><g style="opacity:0.2"><path d="M1823.75,2270.69H1355.94a27.5,27.5,0,0,1-25.6-17.5,27.45,27.45,0,0,0-1.9,10v6.24a27.51,27.51,0,0,0,27.5,27.51h467.81a27.51,27.51,0,0,0,27.5-27.51v-6.24a27.45,27.45,0,0,0-1.9-10A27.52,27.52,0,0,1,1823.75,2270.69Z" style="fill:#6d4c41"/></g><g style="opacity:0.2"><rect x="2161.88" y="2246.63" width="544.69" height="83.12" rx="38.44" style="fill:#6d4c41"/></g><rect x="2202.33" y="1922.88" width="463.79" height="367.5" rx="16" style="fill:#80deea"/><path d="M2650.12,2301.31h-431.8a27,27,0,0,1-26.93-26.93V1938.87a27,27,0,0,1,26.93-26.93h431.8a27,27,0,0,1,26.93,26.93v335.51A27,27,0,0,1,2650.12,2301.31Zm-431.8-367.5a5.06,5.06,0,0,0-5.05,5.06v335.51a5.06,5.06,0,0,0,5.05,5.06h431.8a5.06,5.06,0,0,0,5.05-5.06V1938.87a5.07,5.07,0,0,0-5.05-5.06Z" style="fill:#6d4c41"/><g style="clip-path:url(#clip-path-2)"><rect x="2335.03" y="1659.81" width="117.11" height="704.21" transform="translate(1743.45 -1046.58) rotate(37.95)" style="opacity:0.6000000000000001;fill:url(#linear-gradient-3)"/><rect x="2486.16" y="1789.18" width="64.18" height="704.21" transform="translate(1849.38 -1095.89) rotate(37.95)" style="opacity:0.6000000000000001;fill:url(#linear-gradient-4)"/></g><rect x="1903.75" y="1916.31" width="223.13" height="455" rx="16.15" style="fill:#80deea"/><path d="M2110.72,2382.25H1919.9a27.12,27.12,0,0,1-27.09-27.09v-422.7a27.12,27.12,0,0,1,27.09-27.08h190.82a27.12,27.12,0,0,1,27.09,27.08v422.7A27.12,27.12,0,0,1,2110.72,2382.25Zm-190.82-455a5.22,5.22,0,0,0-5.21,5.21v422.7a5.22,5.22,0,0,0,5.21,5.22h190.82a5.22,5.22,0,0,0,5.22-5.22v-422.7a5.22,5.22,0,0,0-5.22-5.21Z" style="fill:#6d4c41"/><rect x="1205.94" y="2366.94" width="1596.88" height="94.06" rx="47.03" style="fill:#ececec"/><path d="M2755.78,2474.13H1253a60.16,60.16,0,0,1,0-120.32H2755.78a60.16,60.16,0,0,1,0,120.32ZM1253,2380.06a33.91,33.91,0,0,0,0,67.82H2755.78a33.91,33.91,0,0,0,0-67.82Z" style="fill:#6d4c41"/><path d="M1236.56,2431.47a34,34,0,0,1,33.91-33.91H2773.28a33.74,33.74,0,0,1,13.56,2.85,33.94,33.94,0,0,0-31.06-20.35H1253a33.9,33.9,0,0,0-13.56,65A33.74,33.74,0,0,1,1236.56,2431.47Z" style="fill:#fff"/><g style="opacity:0.2"><path d="M2398.13,2375.69s-353.21,94.44-1174.11,73.47H2805l-4.37-73.47-76.85-7.76Z" style="fill:#6d4c41"/></g><path d="M1267.19,1198.81h-61.25a15.31,15.31,0,1,1,0-30.62h61.25a15.31,15.31,0,0,1,0,30.62Z" style="fill:#6d4c41"/><path d="M1267.19,1500.69h-61.25a15.32,15.32,0,1,1,0-30.63h61.25a15.32,15.32,0,0,1,0,30.63Z" style="fill:#6d4c41"/><path d="M2804.11,2308.31H2883a23.29,23.29,0,0,1,23.29,23.29v131.59a0,0,0,0,1,0,0H2780.82a0,0,0,0,1,0,0V2331.6A23.29,23.29,0,0,1,2804.11,2308.31Z" style="fill:#fff"/><path d="M2906.29,2474.13H2780.81a10.93,10.93,0,0,1-10.93-10.94V2331.6a34.27,34.27,0,0,1,34.23-34.23H2883a34.27,34.27,0,0,1,34.23,34.23v131.59A10.94,10.94,0,0,1,2906.29,2474.13Zm-114.54-21.88h103.6V2331.6a12.37,12.37,0,0,0-12.35-12.36h-78.89a12.37,12.37,0,0,0-12.36,12.36Z" style="fill:#6d4c41"/><path d="M2842.71,2313.37a10.94,10.94,0,0,1-10.94-10.94v-88.82a10.94,10.94,0,0,1,21.88,0v88.82A10.94,10.94,0,0,1,2842.71,2313.37Z" style="fill:#6d4c41"/><path d="M2882.36,2047.56a94,94,0,0,0-91.11,71.12,69.91,69.91,0,1,0,46.65,105.78,94,94,0,1,0,44.46-176.9Z" style="fill:#8bc34a"/><path d="M2778.68,2268.27a80.86,80.86,0,1,1,0-161.72c1.57,0,3.16,0,4.76.15a104.89,104.89,0,1,1,58,131.58A80.3,80.3,0,0,1,2778.68,2268.27Zm0-139.85a59,59,0,1,0,50,90.23,11,11,0,0,1,14.45-3.82,83.13,83.13,0,1,0-41.22-93.49,11,11,0,0,1-12.57,8.1A59.1,59.1,0,0,0,2778.68,2128.42Z" style="fill:#6d4c41"/><g style="opacity:0.2"><path d="M2952.67,2079.31A94,94,0,0,1,2816,2180.71a69.71,69.71,0,0,1-106.88,14,69.86,69.86,0,0,0,128.76,29.74,94,94,0,0,0,114.77-145.15Z" style="fill:#6d4c41"/></g><g style="opacity:0.5"><path d="M2728.44,2200.54a59.05,59.05,0,0,1,59-59,58.14,58.14,0,0,1,10.62,1,11,11,0,0,0,12.57-8.11,83,83,0,0,1,145-32,83,83,0,0,0-153.75,18.9,10.94,10.94,0,0,1-12.57,8.1,58.88,58.88,0,0,0-54.84,96.88A58.56,58.56,0,0,1,2728.44,2200.54Z" style="fill:#fff"/></g><path d="M2762.23,2108.88a52.87,52.87,0,0,1,10,1.29,72.51,72.51,0,0,1,9.05,2.53,61.45,61.45,0,0,1,16.41,8.64,45.47,45.47,0,0,1,12.12,13.23c3.23,4.91,4.85,10.5,6.15,15.8-3-4.66-6.15-9.06-10.31-12.25a37.2,37.2,0,0,0-13.16-7.16,48,48,0,0,0-14.32-2.15,54.69,54.69,0,0,0-7.15.46,30.15,30.15,0,0,0-6.35,1.35,11.31,11.31,0,1,1-3.93-21.79Z" style="fill:#6d4c41"/><g style="opacity:0.2"><path d="M2879.38,2318.81s-2.71,122.88-96.25,118.13l-2.71,32.81h127.39l-4.37-153.12Z" style="fill:#6d4c41"/></g><path d="M2713.55,1495.4a30.75,30.75,0,0,0-27.31-16.62H1357.51a30.75,30.75,0,0,0-27.31,16.62l-117.7,227.51v66.16c0,41.3,39,74.78,87,74.78s87-33.48,87-74.78v-4c0,43.52,41.07,78.81,91.73,78.81h0c50.67,0,91.74-35.29,91.74-78.81v3.29c0,41.71,39.35,75.52,87.89,75.52s87.9-33.81,87.9-75.52v-5.86c0,44.94,42.41,81.38,94.72,81.38h0c52.32,0,94.73-36.44,94.73-81.38v7c0,41.08,38.76,74.38,86.58,74.38s86.57-33.3,86.57-74.38v-7c0,44.94,42.41,81.38,94.73,81.38h0c52.31,0,94.72-36.44,94.72-81.38v5.86c0,41.71,39.35,75.52,87.9,75.52s87.89-33.81,87.89-75.52V1785c0,43.52,41.07,78.81,91.74,78.81h0c50.66,0,91.73-35.29,91.73-78.81v4c0,41.3,39,74.78,87.05,74.78s87-33.48,87-74.78v-66.16Z" style="fill:#f75c4c"/><path d="M2744.21,1877c-37.93,0-71-18.59-88-45.94-18.15,27.44-52,45.94-90.77,45.94s-72.84-18.61-90.95-46.21c-17.17,27.51-50.49,46.21-88.69,46.21-38.65,0-72.3-19.14-89.28-47.19C2277.83,1858,2243,1877,2203.18,1877c-39.62,0-74.32-18.81-93.07-46.78-16.72,27.79-50,46.78-88.24,46.78s-71.51-19-88.23-46.78c-18.75,28-53.45,46.78-93.06,46.78-39.81,0-74.66-19-93.34-47.19-17,28-50.63,47.19-89.29,47.19-38.2,0-71.51-18.7-88.68-46.21-18.11,27.59-52.1,46.21-91,46.21s-72.61-18.5-90.77-45.94c-17,27.35-50.08,45.94-88,45.94-55.23,0-100.17-39.43-100.17-87.9v-66.16a13.19,13.19,0,0,1,1.47-6l117.7-227.51a43.72,43.72,0,0,1,39-23.72H2686.24a43.72,43.72,0,0,1,39,23.72h0l117.69,227.51a13.07,13.07,0,0,1,1.47,6v66.16C2844.37,1837.54,2799.44,1877,2744.21,1877ZM2670.29,1785v4c0,34,33.16,61.65,73.92,61.65s73.91-27.65,73.91-61.65v-63L2701.9,1501.43a17.58,17.58,0,0,0-15.66-9.53H1357.51a17.6,17.6,0,0,0-15.66,9.53L1225.62,1726.1v63c0,34,33.16,61.65,73.92,61.65s73.92-27.65,73.92-61.65v-4a13.13,13.13,0,1,1,26.25,0c0,36.22,35.26,65.68,78.61,65.68s78.61-29.46,78.61-65.68a13.13,13.13,0,1,1,26.25,0v3.3c0,34.4,33.54,62.38,74.77,62.38s74.77-28,74.77-62.38v-5.87a13.13,13.13,0,1,1,26.25,0c0,37.63,36.61,68.25,81.61,68.25s81.59-30.62,81.59-68.25a13.13,13.13,0,1,1,26.25,0v7c0,33.78,32.95,61.26,73.45,61.26s73.46-27.48,73.46-61.26v-7a13.13,13.13,0,1,1,26.25,0c0,37.63,36.61,68.25,81.6,68.25s81.59-30.62,81.59-68.25a13.13,13.13,0,1,1,26.25,0v5.87c0,34.4,33.54,62.38,74.77,62.38s74.78-28,74.78-62.38V1785a13.13,13.13,0,1,1,26.25,0c0,36.22,35.26,65.68,78.61,65.68S2644,1821.26,2644,1785a13.13,13.13,0,1,1,26.25,0Z" style="fill:#6d4c41"/><path d="M1745.85,1722.91v59.56c0,44.94,42.41,81.38,94.72,81.38h0c52.32,0,94.73-36.44,94.73-81.38v-59.56l12.8-244.13H1786.81Z" style="fill:#fff"/><path d="M1840.58,1874.79c-58.27,0-105.67-41.42-105.67-92.32v-59.56a11.05,11.05,0,0,1,.15-1.81L1776,1477a11,11,0,0,1,10.79-9.13h161.28a10.94,10.94,0,0,1,10.93,11.51l-12.79,243.85v59.27C1946.23,1833.37,1898.84,1874.79,1840.58,1874.79Zm-83.79-151v58.65c0,38.84,37.58,70.44,83.79,70.44s83.78-31.6,83.78-70.44v-59.56c0-.19,0-.38,0-.57l12.2-232.62H1796.06Z" style="fill:#6d4c41"/><path d="M1386.59,1722.91V1785c0,43.52,41.07,78.81,91.73,78.81h0c50.67,0,91.74-35.29,91.74-78.81v-62.13l64.43-244.13H1489Z" style="fill:#fff"/><path d="M1478.32,1874.79c-56.61,0-102.67-40.27-102.67-89.75v-62.13a11,11,0,0,1,.85-4.23l102.4-244.13a10.93,10.93,0,0,1,10.09-6.71h145.5a10.93,10.93,0,0,1,10.57,13.73L1581,1724.33V1785C1581,1834.52,1534.94,1874.79,1478.32,1874.79Zm-80.8-149.68V1785c0,37.42,36.25,67.87,80.8,67.87s80.8-30.45,80.8-67.87v-62.13a11,11,0,0,1,.36-2.79l60.81-230.4h-124Z" style="fill:#6d4c41"/><path d="M2095.65,1478.78l12.8,244.13v59.56c0,44.94,42.41,81.38,94.73,81.38h0c52.31,0,94.72-36.44,94.72-81.38v-59.56l-41-244.13Z" style="fill:#fff"/><path d="M2203.18,1874.79c-58.26,0-105.66-41.42-105.66-92.32v-59.28l-12.79-243.84a10.94,10.94,0,0,1,10.92-11.51h161.29a10.93,10.93,0,0,1,10.78,9.13l41,244.13a11.05,11.05,0,0,1,.15,1.81v59.56C2308.84,1833.37,2261.44,1874.79,2203.18,1874.79Zm-96-385.07,12.2,232.62c0,.19,0,.38,0,.57v59.56c0,38.84,37.59,70.44,83.79,70.44s83.78-31.6,83.78-70.44v-58.65l-39.28-234.1Z" style="fill:#6d4c41"/><path d="M2409.26,1478.78l64.43,244.13V1785c0,43.52,41.07,78.81,91.74,78.81h0c50.66,0,91.73-35.29,91.73-78.81v-62.13l-102.4-244.13Z" style="fill:#fff"/><path d="M2565.43,1874.79c-56.62,0-102.68-40.27-102.68-89.75v-60.71l-64.06-242.76a10.92,10.92,0,0,1,10.57-13.73h145.5a11,11,0,0,1,10.09,6.71l102.4,244.13a10.8,10.8,0,0,1,.85,4.23V1785C2668.1,1834.52,2622,1874.79,2565.43,1874.79Zm-142-385.07,60.81,230.4a11,11,0,0,1,.36,2.79V1785c0,37.42,36.24,67.87,80.8,67.87s80.8-30.45,80.8-67.87v-59.93l-98.74-235.39Z" style="fill:#6d4c41"/><path d="M1570.06,1722.91v65.42c0,41.71,39.35,75.52,87.89,75.52s87.9-33.81,87.9-75.52v-65.42l41-244.13H1634.49Z" style="fill:#f75c4c"/><path d="M1658,1874.79c-54.49,0-98.83-38.78-98.83-86.45v-65.43a11,11,0,0,1,.36-2.79L1623.91,1476a11,11,0,0,1,10.58-8.15h152.32a10.94,10.94,0,0,1,10.79,12.75l-40.81,243.23v64.52C1756.79,1836,1712.45,1874.79,1658,1874.79Zm-77-150.46v64c0,35.6,34.52,64.57,77,64.57s77-29,77-64.57v-65.43a11.05,11.05,0,0,1,.15-1.81l38.83-231.38h-131Z" style="fill:#6d4c41"/><g style="opacity:0.5"><path d="M1598.5,1797.09v-64l61.91-234.61h112l1.46-8.75h-131L1581,1724.33v64c0,26.69,19.4,49.65,47,59.47C1610.07,1836,1598.5,1817.66,1598.5,1797.09Z" style="fill:#fff"/></g><path d="M1212.5,1722.91v66.16c0,41.3,39,74.78,87,74.78s87-33.48,87-74.78v-66.16L1489,1478.78H1357.51a30.75,30.75,0,0,0-27.31,16.62Z" style="fill:#f75c4c"/><path d="M1299.54,1874.79c-54,0-98-38.46-98-85.72v-66.16a10.94,10.94,0,0,1,1.22-5l117.7-227.52a41.56,41.56,0,0,1,37-22.53H1489a10.95,10.95,0,0,1,10.09,15.17l-101.56,242.1v64C1397.52,1836.33,1353.57,1874.79,1299.54,1874.79Zm-76.1-149.22v63.5c0,35.2,34.14,63.84,76.1,63.84s76.11-28.64,76.11-63.84v-66.16a11,11,0,0,1,.85-4.23l96-229h-115a19.72,19.72,0,0,0-17.59,10.71Z" style="fill:#6d4c41"/><g style="opacity:0.5"><path d="M1236.56,1797.82v-63.5L1353,1509.18a19.74,19.74,0,0,1,17.6-10.71h98.23l3.67-8.75h-115a19.75,19.75,0,0,0-17.6,10.71l-116.47,225.14v63.5c0,22.65,14.18,42.53,35.44,53.87C1245.1,1831.38,1236.56,1815.42,1236.56,1797.82Z" style="fill:#fff"/></g><path d="M2256.94,1478.78l41,244.13v65.42c0,41.71,39.35,75.52,87.9,75.52s87.89-33.81,87.89-75.52v-65.42l-64.43-244.13Z" style="fill:#f75c4c"/><path d="M2385.79,1874.79c-54.49,0-98.83-38.78-98.83-86.45v-64.52l-40.81-243.23a10.94,10.94,0,0,1,10.79-12.75h152.32a11,11,0,0,1,10.58,8.15l64.43,244.13a11,11,0,0,1,.36,2.79v65.43C2484.63,1836,2440.29,1874.79,2385.79,1874.79Zm-115.93-385.07,38.83,231.38a11.05,11.05,0,0,1,.15,1.81v65.43c0,35.6,34.52,64.57,76.95,64.57s77-29,77-64.57v-64l-61.92-234.61Z" style="fill:#6d4c41"/><g style="opacity:0.5"><path d="M2326.34,1797.09v-65.43a11,11,0,0,0-.15-1.81l-38.83-231.38h115.79l-2.31-8.75h-131l38.83,231.38a11,11,0,0,1,.15,1.81v65.43c0,26.69,19.4,49.65,47,59.47C2337.91,1836,2326.34,1817.66,2326.34,1797.09Z" style="fill:#fff"/></g><path d="M2686.24,1478.78H2554.76l102.4,244.13v66.16c0,41.3,39,74.78,87.05,74.78s87-33.48,87-74.78v-66.16l-117.7-227.51A30.75,30.75,0,0,0,2686.24,1478.78Z" style="fill:#f75c4c"/><path d="M2744.21,1874.79c-54,0-98-38.46-98-85.72v-64L2544.67,1483a10.94,10.94,0,0,1,10.09-15.17h131.48a41.55,41.55,0,0,1,37,22.54L2841,1717.89a10.94,10.94,0,0,1,1.22,5v66.16C2842.19,1836.33,2798.23,1874.79,2744.21,1874.79Zm-173-385.07,96,229a10.8,10.8,0,0,1,.85,4.23v66.16c0,35.2,34.15,63.84,76.11,63.84s76.1-28.64,76.1-63.84v-63.5l-116.47-225.14a19.74,19.74,0,0,0-17.6-10.71Z" style="fill:#6d4c41"/><g style="opacity:0.5"><path d="M2685.6,1797.82v-66.16a11,11,0,0,0-.85-4.23l-96-229h113.93a19.69,19.69,0,0,0-16.4-8.75h-115l96,229a11,11,0,0,1,.85,4.23v66.16c0,26.41,19.23,49.13,46.55,58.83C2697,1836.2,2685.6,1818.12,2685.6,1797.82Z" style="fill:#fff"/></g><path d="M1948.1,1478.78l-12.8,244.13v66.56c0,41.08,38.76,74.38,86.58,74.38s86.57-33.3,86.57-74.38v-66.56l-12.8-244.13Z" style="fill:#f75c4c"/><path d="M2021.87,1874.79c-53.77,0-97.51-38.28-97.51-85.33v-66.55c0-.19,0-.38,0-.57l12.8-244.14a10.93,10.93,0,0,1,10.92-10.36h147.56a11,11,0,0,1,10.93,10.36l12.8,244.14c0,.19,0,.38,0,.57v66.55C2119.39,1836.51,2075.65,1874.79,2021.87,1874.79Zm-75.64-151.59v66.26c0,35,33.93,63.45,75.64,63.45s75.65-28.46,75.65-63.45V1723.2l-12.25-233.48H1958.48Z" style="fill:#6d4c41"/><g style="opacity:0.5"><path d="M1963.73,1798.22V1732L1976,1498.47h109.75l-.46-8.75H1958.48l-12.25,233.48v66.27c0,26.26,19.13,48.84,46.31,58.47C1975,1836.31,1963.73,1818.37,1963.73,1798.22Z" style="fill:#fff"/></g><path d="M2821.12,1736H1222.63a10.94,10.94,0,1,1,0-21.87H2821.12a10.94,10.94,0,0,1,0,21.87Z" style="fill:#6d4c41"/><g style="opacity:0.30000000000000004"><path d="M1208.12,1723.81H2835.63v56.88l-12.43,44.67-33.51,36.27-56.88-4.38-59.08-20.49-7.6-17.74-12.07-5.52s-27,29.25-31,32.12-82.76,24.76-82.76,24.76l-51.5-40-8.87-17.73-34.2,29.13-67.13,20.27-40.53-11.4-42.77-37.19-38.3,37.19L2203.44,1866l-56.62-16.58-30.88-27.17-18.52,8.17-42.73,22.46-66.2,4.14-31.67-21.53-20.26-17.61-39.37,21.87-41.7,21.07L1782,1846.89l-33.59-29L1735.16,1833l-53.2,27.86-74.73-10.13-38-40.53-25.33,32.93L1477.19,1866l-62.49-26.71-32.93-24.07-38,40.54-68.4,6.33L1219.06,1831l-13.12-48.12Z" style="fill:#6d4c41"/></g><path d="M1904.1,2321h222.42a33.17,33.17,0,0,1,33.17,33.17v10.58a0,0,0,0,1,0,0H1870.94a0,0,0,0,1,0,0v-10.58A33.17,33.17,0,0,1,1904.1,2321Z" style="fill:#707070"/><path d="M2159.69,2375.69H1870.94a10.94,10.94,0,0,1-10.94-10.94v-10.58a44.15,44.15,0,0,1,44.1-44.11h222.42a44.15,44.15,0,0,1,44.1,44.11v10.58A10.93,10.93,0,0,1,2159.69,2375.69Zm-277.81-21.88h266.86a22.24,22.24,0,0,0-22.22-21.87H1904.1A22.24,22.24,0,0,0,1881.88,2353.81Z" style="fill:#6d4c41"/><g style="opacity:0.5"><path d="M1912.85,2336.31h222.42a22.3,22.3,0,0,1,5.19.68,22,22,0,0,0-13.94-5H1904.1a22.25,22.25,0,0,0-22.22,21.87h9.25A22.28,22.28,0,0,1,1912.85,2336.31Z" style="fill:#fff"/></g><rect x="1044.06" y="1113.5" width="161.88" height="441.88" rx="42.07" style="fill:#f75c4c"/><path d="M1163.87,1568.5h-77.74a55.25,55.25,0,0,1-55.19-55.19V1155.57a55.26,55.26,0,0,1,55.19-55.2h77.74a55.26,55.26,0,0,1,55.19,55.2v357.74A55.25,55.25,0,0,1,1163.87,1568.5Zm-77.74-441.88a29,29,0,0,0-28.94,29v357.74a29,29,0,0,0,28.94,28.94h77.74a29,29,0,0,0,28.94-28.94V1155.57a29,29,0,0,0-28.94-29Z" style="fill:#6d4c41"/><path d="M1139.69,1178.78a37.8,37.8,0,0,0-7.27-4.1,17.48,17.48,0,0,0-6.62-1.52,8.73,8.73,0,0,0-4.53,1,3.59,3.59,0,0,0-1.73,3.3,3.34,3.34,0,0,0,.72,2.12,6.67,6.67,0,0,0,2,1.65,21.09,21.09,0,0,0,2.85,1.36c1.07.43,2.22.83,3.45,1.21q3,1,6.06,2.25a20.14,20.14,0,0,1,5.54,3.21,15.77,15.77,0,0,1,4,5,16.9,16.9,0,0,1,1.56,7.71,16.57,16.57,0,0,1-1.69,7.75,15.44,15.44,0,0,1-4.53,5.37,19.34,19.34,0,0,1-6.5,3.14,28.06,28.06,0,0,1-18.71-1.37,29.35,29.35,0,0,1-9.91-6.94l5-10.84a32.65,32.65,0,0,0,8.31,6.26,18,18,0,0,0,8.15,2.25,10,10,0,0,0,5.06-1.16,4.11,4.11,0,0,0,2.09-3.66,4.3,4.3,0,0,0-.77-2.53,7.54,7.54,0,0,0-2-1.92,13.81,13.81,0,0,0-3-1.45l-3.58-1.24c-2-.64-4-1.37-5.94-2.17a20.6,20.6,0,0,1-5.33-3.13,14.67,14.67,0,0,1-3.86-4.86,16.33,16.33,0,0,1-1.48-7.42,16.64,16.64,0,0,1,1.6-7.59,14.53,14.53,0,0,1,4.3-5.18,18.46,18.46,0,0,1,6.18-3,26.92,26.92,0,0,1,16.62.77,34.73,34.73,0,0,1,8.71,4.69Z" style="fill:#fff"/><path d="M1148.72,1258.66v56.11h-14.93v-24h-17.66v24h-14.85v-56.11h14.85v21.51h17.66v-21.51Z" style="fill:#fff"/><path d="M1125,1354.19a37.67,37.67,0,0,1,9.19,1.24,24.28,24.28,0,0,1,16.14,13.37q2.76,5.61,2.77,14.37a36.75,36.75,0,0,1-1.29,10.27,26.94,26.94,0,0,1-3.45,7.63,22,22,0,0,1-5,5.34,26,26,0,0,1-6,3.37,28.56,28.56,0,0,1-6.34,1.72,40.94,40.94,0,0,1-6,.49,38.54,38.54,0,0,1-9.15-1.21,24.91,24.91,0,0,1-9.11-4.37,24.47,24.47,0,0,1-7-8.79q-2.81-5.62-2.81-14.45a36.78,36.78,0,0,1,1.29-10.28,26.42,26.42,0,0,1,3.49-7.63,22.43,22.43,0,0,1,5.06-5.33,27.81,27.81,0,0,1,5.94-3.42,28.56,28.56,0,0,1,6.3-1.8A37.4,37.4,0,0,1,1125,1354.19Zm-12.68,28.9a30.91,30.91,0,0,0,.72,6.7,18.5,18.5,0,0,0,2.25,5.74,11.75,11.75,0,0,0,3.93,4,12,12,0,0,0,11.56,0,11.85,11.85,0,0,0,3.93-4,18.5,18.5,0,0,0,2.25-5.74,30.91,30.91,0,0,0,.72-6.7,31.74,31.74,0,0,0-.72-6.87,18.07,18.07,0,0,0-2.25-5.7,11.6,11.6,0,0,0-3.93-3.89,12.25,12.25,0,0,0-11.56,0,11.51,11.51,0,0,0-3.93,3.89,18.07,18.07,0,0,0-2.25,5.7A31.74,31.74,0,0,0,1112.32,1383.09Z" style="fill:#fff"/><path d="M1104.85,1451.32h19.75a36.64,36.64,0,0,1,8.59,1,22.75,22.75,0,0,1,7.42,3.17,16.11,16.11,0,0,1,7.27,14.12,16.14,16.14,0,0,1-2,8.27,17.49,17.49,0,0,1-5.18,5.66,21.93,21.93,0,0,1-7.14,3.25,30.57,30.57,0,0,1-7.83,1h-5.94v19.59h-14.93Zm18.14,25.93a23.25,23.25,0,0,0,4-.32,8.59,8.59,0,0,0,3.13-1.16,6,6,0,0,0,2.08-2.33,8.32,8.32,0,0,0,.77-3.82,8.51,8.51,0,0,0-.77-3.89,6,6,0,0,0-2.08-2.33,8.21,8.21,0,0,0-3.13-1.12,25.7,25.7,0,0,0-4-.28h-3.13v15.25Z" style="fill:#fff"/><g style="clip-path:url(#clip-path-3)"><rect x="1430.11" y="975.1" width="83.89" height="504.45" transform="translate(1066.07 -645.76) rotate(37.95)" style="opacity:0.6000000000000001;fill:url(#linear-gradient-5)"/><rect x="1538.37" y="1067.77" width="45.97" height="504.45" transform="translate(1141.95 -681.08) rotate(37.95)" style="opacity:0.6000000000000001;fill:url(#linear-gradient-6)"/></g><g style="clip-path:url(#clip-path-4)"><rect x="1770.72" y="975.1" width="83.89" height="504.45" transform="translate(1138.1 -855.23) rotate(37.95)" style="opacity:0.6000000000000001;fill:url(#linear-gradient-7)"/><rect x="1878.98" y="1067.77" width="45.97" height="504.45" transform="translate(1213.98 -890.55) rotate(37.95)" style="opacity:0.6000000000000001;fill:url(#linear-gradient-8)"/></g><g style="clip-path:url(#clip-path-5)"><rect x="2111.33" y="975.1" width="83.89" height="504.45" transform="translate(1210.13 -1064.71) rotate(37.95)" style="opacity:0.6000000000000001;fill:url(#linear-gradient-9)"/><rect x="2219.59" y="1067.77" width="45.97" height="504.45" transform="translate(1286 -1100.03) rotate(37.95)" style="opacity:0.6000000000000001;fill:url(#linear-gradient-10)"/></g><g style="clip-path:url(#clip-path-6)"><rect x="2451.95" y="975.1" width="83.89" height="504.45" transform="translate(1282.16 -1274.18) rotate(37.95)" style="opacity:0.6000000000000001;fill:url(#linear-gradient-11)"/><rect x="2560.21" y="1067.77" width="45.97" height="504.45" transform="translate(1358.03 -1309.5) rotate(37.95)" style="opacity:0.6000000000000001;fill:url(#linear-gradient-12)"/></g><g style="opacity:0.2"><path d="M1621.88,1148.5h-235a21.29,21.29,0,0,0-21.29,21.29v56.87a21.28,21.28,0,0,1,21.29-21.28h235a21.28,21.28,0,0,1,21.28,21.28v-56.87A21.29,21.29,0,0,0,1621.88,1148.5Z" style="fill:#6d4c41"/></g><g style="opacity:0.2"><path d="M1963.13,1148.5h-235a21.28,21.28,0,0,0-21.28,21.29v56.87a21.27,21.27,0,0,1,21.28-21.28h235a21.28,21.28,0,0,1,21.28,21.28v-56.87A21.29,21.29,0,0,0,1963.13,1148.5Z" style="fill:#6d4c41"/></g><g style="opacity:0.2"><path d="M2304.38,1148.5h-235a21.28,21.28,0,0,0-21.28,21.29v56.87a21.27,21.27,0,0,1,21.28-21.28h235a21.28,21.28,0,0,1,21.28,21.28v-56.87A21.29,21.29,0,0,0,2304.38,1148.5Z" style="fill:#6d4c41"/></g><g style="opacity:0.2"><path d="M2645.63,1148.5h-235a21.28,21.28,0,0,0-21.28,21.29v56.87a21.27,21.27,0,0,1,21.28-21.28h235a21.28,21.28,0,0,1,21.28,21.28v-56.87A21.29,21.29,0,0,0,2645.63,1148.5Z" style="fill:#6d4c41"/></g><g style="opacity:0.2"><path d="M2203.52,1995.75a16,16,0,0,1,16-16h431.79a16,16,0,0,1,14.8,10v-50.85a16,16,0,0,0-16-16h-431.8a16,16,0,0,0-16,16v335.51a15.89,15.89,0,0,0,1.19,6Z" style="fill:#6d4c41"/></g><rect x="2172.81" y="2235.69" width="522.81" height="61.25" rx="27.5" style="fill:#fff"/><path d="M2668.12,2307.88h-467.8a38.5,38.5,0,0,1-38.45-38.45v-6.24a38.49,38.49,0,0,1,38.45-38.44h467.8a38.48,38.48,0,0,1,38.44,38.44v6.24A38.49,38.49,0,0,1,2668.12,2307.88Zm-467.8-61.25a16.58,16.58,0,0,0-16.57,16.56v6.24a16.58,16.58,0,0,0,16.57,16.57h467.8a16.59,16.59,0,0,0,16.57-16.57v-6.24a16.59,16.59,0,0,0-16.57-16.56Z" style="fill:#6d4c41"/><g style="opacity:0.2"><path d="M2668.12,2270.69h-467.8a27.49,27.49,0,0,1-25.6-17.5,27.25,27.25,0,0,0-1.91,10v6.24a27.51,27.51,0,0,0,27.51,27.51h467.8a27.51,27.51,0,0,0,27.51-27.51v-6.24a27.45,27.45,0,0,0-1.91-10A27.49,27.49,0,0,1,2668.12,2270.69Z" style="fill:#6d4c41"/></g><rect x="1943.13" y="2073.81" width="17.5" height="70" rx="7.14" style="fill:#6d4c41"/><g style="opacity:0.2"><path d="M1028.75,2331.94s17.28,115-203.55,112.2L839,2457.89h222.61l17.5-58.14-17.5-52.5Z" style="fill:#6d4c41"/></g><circle cx="856.13" cy="2142.05" r="21.34" style="fill:#6d4c41"/><circle cx="3143.31" cy="2149.82" r="24.61" style="fill:#6d4c41"/><circle cx="3137.52" cy="872.48" r="20.54" style="fill:#6d4c41"/><path d="M3048.23,741.76c4.74-4.75,1.75-16-6.64-28.79a11.34,11.34,0,0,1,0-12.49c8.39-12.77,11.38-24,6.64-28.79s-16-1.75-28.79,6.64a11.38,11.38,0,0,1-12.49,0c-12.77-8.39-24-11.38-28.79-6.64s-1.75,16,6.64,28.79a11.38,11.38,0,0,1,0,12.49c-8.39,12.77-11.38,24-6.64,28.79s16,1.75,28.79-6.64a11.38,11.38,0,0,1,12.49,0C3032.21,743.51,3043.48,746.5,3048.23,741.76Z" style="fill:#6d4c41"/><path d="M755.36,2033.9c5.46,0,10.22-8.21,12.74-20.38a9.23,9.23,0,0,1,7.18-7.18c12.17-2.52,20.38-7.28,20.38-12.74s-8.21-10.22-20.38-12.74a9.24,9.24,0,0,1-7.18-7.19c-2.52-12.17-7.28-20.37-12.74-20.37s-10.22,8.2-12.74,20.37a9.25,9.25,0,0,1-7.19,7.19c-12.17,2.52-20.37,7.28-20.37,12.74s8.2,10.22,20.37,12.74a9.24,9.24,0,0,1,7.19,7.18C745.14,2025.69,749.9,2033.9,755.36,2033.9Z" style="fill:#6d4c41"/><circle cx="1000.62" cy="710.18" r="32.56" style="fill:#6d4c41"/><circle cx="854.91" cy="887.3" r="21.28" style="fill:#6d4c41"/></svg>