<svg id="Layer_1" data-name="Layer 1" xmlns="http://www.w3.org/2000/svg" xmlns:xlink="http://www.w3.org/1999/xlink" viewBox="0 0 3086 2346"><defs><clipPath id="clip-path"><rect x="911.89" y="1606.81" width="441.91" height="345.63" rx="5.06" style="fill:none"/></clipPath><linearGradient id="linear-gradient" x1="485.53" y1="920.18" x2="485.53" y2="1476.47" gradientTransform="matrix(0.67, -0.75, 0.75, 0.67, -125.11, 1249.18)" gradientUnits="userSpaceOnUse"><stop offset="0" stop-color="#fff"/><stop offset="0.1" stop-color="#fff" stop-opacity="0.98"/><stop offset="0.22" stop-color="#fff" stop-opacity="0.92"/><stop offset="0.36" stop-color="#fff" stop-opacity="0.82"/><stop offset="0.5" stop-color="#fff" stop-opacity="0.68"/><stop offset="0.65" stop-color="#fff" stop-opacity="0.51"/><stop offset="0.81" stop-color="#fff" stop-opacity="0.29"/><stop offset="0.97" stop-color="#fff" stop-opacity="0.04"/><stop offset="0.99" stop-color="#fff" stop-opacity="0"/></linearGradient><linearGradient id="linear-gradient-2" x1="585.05" y1="1089.49" x2="585.05" y2="1606.3" gradientTransform="matrix(0.67, -0.75, 0.75, 0.67, -178.31, 1353.2)" xlink:href="#linear-gradient"/><clipPath id="clip-path-2"><rect x="1756.26" y="1606.81" width="441.91" height="345.63" rx="5.06" style="fill:none"/></clipPath><linearGradient id="linear-gradient-3" x1="1316.3" y1="1071.12" x2="1316.3" y2="1627.42" gradientTransform="translate(53.45 1768.46) rotate(-48.25)" xlink:href="#linear-gradient"/><linearGradient id="linear-gradient-4" x1="1415.83" y1="1240.44" x2="1415.83" y2="1757.25" gradientTransform="translate(0.25 1872.48) rotate(-48.25)" xlink:href="#linear-gradient"/><clipPath id="clip-path-3"><rect x="919.56" y="832.44" width="255.66" height="218.75" rx="10.35" style="fill:none"/></clipPath><linearGradient id="linear-gradient-5" x1="549.88" y1="213.34" x2="549.88" y2="611.83" gradientTransform="matrix(0.67, -0.75, 0.75, 0.67, 341.09, 1035.82)" xlink:href="#linear-gradient"/><linearGradient id="linear-gradient-6" x1="621.17" y1="334.62" x2="621.17" y2="704.83" gradientTransform="translate(302.98 1110.34) rotate(-48.25)" xlink:href="#linear-gradient"/><clipPath id="clip-path-4"><rect x="1260.18" y="832.44" width="255.66" height="218.75" rx="10.35" style="fill:none"/></clipPath><linearGradient id="linear-gradient-7" x1="885" y1="274.23" x2="885" y2="672.72" gradientTransform="matrix(0.67, -0.75, 0.75, 0.67, 413.11, 1245.29)" xlink:href="#linear-gradient"/><linearGradient id="linear-gradient-8" x1="956.3" y1="395.51" x2="956.3" y2="765.72" gradientTransform="translate(375.01 1319.81) rotate(-48.25)" xlink:href="#linear-gradient"/><clipPath id="clip-path-5"><rect x="1600.79" y="832.44" width="255.66" height="218.75" rx="10.35" style="fill:none"/></clipPath><linearGradient id="linear-gradient-9" x1="1220.13" y1="335.12" x2="1220.13" y2="733.61" gradientTransform="matrix(0.67, -0.75, 0.75, 0.67, 485.14, 1454.77)" xlink:href="#linear-gradient"/><linearGradient id="linear-gradient-10" x1="1291.42" y1="456.4" x2="1291.42" y2="826.61" gradientTransform="translate(447.03 1529.28) rotate(-48.25)" xlink:href="#linear-gradient"/><clipPath id="clip-path-6"><rect x="1941.4" y="832.44" width="255.66" height="218.75" rx="10.35" style="fill:none"/></clipPath><linearGradient id="linear-gradient-11" x1="1555.25" y1="396.01" x2="1555.25" y2="794.51" gradientTransform="translate(557.17 1664.24) rotate(-48.25)" xlink:href="#linear-gradient"/><linearGradient id="linear-gradient-12" x1="1626.55" y1="517.3" x2="1626.55" y2="887.51" gradientTransform="matrix(0.67, -0.75, 0.75, 0.67, 519.06, 1738.75)" xlink:href="#linear-gradient"/></defs><g style="opacity:0.30000000000000004"><path d="M3013.8,2169.34c0-27.45-658.5-49.7-1470.8-49.7S72.2,2141.89,72.2,2169.34c0,15.87,220.05,30,562.65,39.1,73.92,17.79,360.55,31,702.87,31,286.67,0,534.27-9.3,650.63-22.77C2582.93,2210.34,3013.8,2191.54,3013.8,2169.34Z" style="fill:#6d4c41"/></g><path d="M2262.72,2126C2518,1917.3,2681,1600,2681,1244.51c0-628.5-509.5-1138-1138-1138S405,616,405,1244.51C405,1600,568,1917.3,823.28,2126c212.77-4,458.25-6.35,719.72-6.35S2050,2121.94,2262.72,2126Z" style="fill:#e7c0ff"/><g style="opacity:0.2"><path d="M2262.72,2126a1143,1143,0,0,0,290.34-356.83,104.86,104.86,0,0,0-182.87,28q-2.4-.15-4.77-.15c-.71,0-1.4.09-2.11.11V1562.74c39.4-11.84,67.82-44.64,67.82-83.17v-66.15a13.16,13.16,0,0,0-1.47-6l-66.35-128.26V753.32a61.24,61.24,0,0,0-6.56-122.13H847.37a61.25,61.25,0,1,0,0,122.5h6.57v105H805.81V846.07a55.25,55.25,0,0,0-55.19-55.19H672.88a55.25,55.25,0,0,0-55.19,55.19v357.74A55.25,55.25,0,0,0,672.88,1259h77.74a55.25,55.25,0,0,0,55.19-55.19v-12.62h48.13v88l-66.35,128.25a13.16,13.16,0,0,0-1.47,6v66.15c0,38.53,28.42,71.33,67.82,83.17v365.71a174.57,174.57,0,0,0-235.59-20.63A1144.83,1144.83,0,0,0,823.28,2126c212.77-4,458.25-6.35,719.72-6.35S2050,2121.94,2262.72,2126ZM853.94,1160.56H805.81V889.31h48.13Z" style="fill:#6d4c41"/></g><path d="M2877.65,2151.06H208.35a14.87,14.87,0,0,1,0-29.74h2669.3a14.87,14.87,0,0,1,0,29.74Z" style="fill:#6d4c41"/><path d="M681.12,1867.13A161.82,161.82,0,0,0,558,2134H804.27a161.82,161.82,0,0,0-123.15-266.87Z" style="fill:#8bc34a"/><path d="M804.27,2147.13H558a13.13,13.13,0,0,1-10-4.61A175,175,0,0,1,506.12,2029c0-96.49,78.51-175,175-175s175,78.51,175,175a175,175,0,0,1-41.86,113.52A13.15,13.15,0,0,1,804.27,2147.13Zm-240.08-26.25H798.06A148.72,148.72,0,0,0,829.87,2029c0-82-66.72-148.75-148.75-148.75S532.37,1947,532.37,2029A148.77,148.77,0,0,0,564.19,2120.88Z" style="fill:#6d4c41"/><g style="opacity:0.2"><path d="M773,1899.94s-17.5,196.87-275.63,170.62l31.57,64.84h232.6v-61.85l22.65-31.36s43.5-8.81,43.5-13.19-8.75-96.25-8.75-96.25Z" style="fill:#6d4c41"/></g><g style="opacity:0.5"><path d="M545.5,2044.31c0-82,66.73-148.75,148.75-148.75a148.28,148.28,0,0,1,106.23,44.77,148.62,148.62,0,0,0-119.36-60.08c-82,0-148.75,66.73-148.75,148.75a148.75,148.75,0,0,0,31.82,91.88h2.56A148.74,148.74,0,0,1,545.5,2044.31Z" style="fill:#fff"/></g><path d="M617.69,2092.44A126.88,126.88,0,1,0,370.94,2134H610.69A126.79,126.79,0,0,0,617.69,2092.44Z" style="fill:#8bc34a"/><path d="M610.68,2147.13H370.94a13.13,13.13,0,0,1-12.4-8.83,139.62,139.62,0,0,1-7.73-45.86c0-77.2,62.8-140,140-140s140,62.8,140,140a139.88,139.88,0,0,1-7.72,45.86A13.14,13.14,0,0,1,610.68,2147.13Zm-230-26.25H601a113.75,113.75,0,1,0-220.28,0Z" style="fill:#6d4c41"/><g style="opacity:0.5"><path d="M490.81,1978.69a113.76,113.76,0,0,0-110.14,142.19h10.92a114.94,114.94,0,0,1-1.4-17.5,113.08,113.08,0,0,1,15.5-57.23c9.66-2.72,20.46-8.07,30.82-15.79,14-10.47,24.13-22.95,28.48-33.86a113.56,113.56,0,0,1,104.9,14.28A113.36,113.36,0,0,0,490.81,1978.69Z" style="fill:#fff"/></g><path d="M2693.63,2101.94a148.34,148.34,0,0,0-193.81-141.17,189.26,189.26,0,0,0-177-122.21c-104.51,0-189.22,84.72-189.22,189.22A188.31,188.31,0,0,0,2166.24,2134h523.87A148.57,148.57,0,0,0,2693.63,2101.94Z" style="fill:#8bc34a"/><path d="M2690.11,2147.13H2166.24a13.14,13.14,0,0,1-10.85-5.75,201.28,201.28,0,0,1-34.89-113.6c0-111.58,90.77-202.35,202.35-202.35,79.54,0,152.27,47.57,184.64,119.55a161.26,161.26,0,0,1,37.82-4.48c89,0,161.44,72.42,161.44,161.44a162.63,162.63,0,0,1-3.82,34.89A13.14,13.14,0,0,1,2690.11,2147.13Zm-516.76-26.25h505.81a135.53,135.53,0,0,0,1.34-18.94c0-74.54-60.65-135.19-135.19-135.19a135,135,0,0,0-41.47,6.51,13.12,13.12,0,0,1-16.3-7.85c-25.77-68-92-113.73-164.69-113.73-97.1,0-176.1,79-176.1,176.1A175.13,175.13,0,0,0,2173.35,2120.88Z" style="fill:#6d4c41"/><g style="opacity:0.2"><path d="M2382.11,1987.87a34.26,34.26,0,0,0-34.23,34.23V2134h147.34V2022.1a34.26,34.26,0,0,0-34.23-34.23h-29.34V1933a104.57,104.57,0,0,0,55.31.62A189.34,189.34,0,0,0,2284,1842.56a80.8,80.8,0,0,0,125.74,96.3v49Z" style="fill:#6d4c41"/></g><g style="opacity:0.5"><path d="M2545.32,1966.75a135.06,135.06,0,0,0-41.48,6.51,13.12,13.12,0,0,1-16.3-7.85c-25.77-68-91.95-113.73-164.69-113.73-76.24,0-141.3,48.71-165.74,116.63,27.22-62.14,89.29-105.69,161.36-105.69,72.74,0,138.93,45.71,164.7,113.73a13.12,13.12,0,0,0,16.3,7.85,135,135,0,0,1,41.47-6.51c74.54,0,135.19,60.64,135.19,135.18,0,2.66-.13,5.34-.29,8h3.31a134.25,134.25,0,0,0,1.35-18.94C2680.5,2027.39,2619.86,1966.75,2545.32,1966.75Z" style="fill:#fff"/></g><rect x="823.31" y="703.38" width="1483.13" height="1426.25" style="fill:#ffe082"/><path d="M2306.44,2142.75H823.31a13.11,13.11,0,0,1-13.12-13.12V703.37a13.12,13.12,0,0,1,13.12-13.12H2306.44a13.12,13.12,0,0,1,13.12,13.12V2129.63A13.11,13.11,0,0,1,2306.44,2142.75Zm-1470-26.25H2293.31V716.5H836.44Z" style="fill:#6d4c41"/><g style="opacity:0.2"><path d="M2385.91,1429.26l-117.7-227.51a43.72,43.72,0,0,0-39-23.72H900.51a43.72,43.72,0,0,0-39,23.72l-117.7,227.51a13.16,13.16,0,0,0-1.47,6v66.15c0,48.47,44.94,87.91,100.17,87.91,37.94,0,71-18.6,88-45.95,18.16,27.45,52.05,45.95,90.77,45.95s72.84-18.62,90.95-46.22c17.17,27.52,50.48,46.22,88.69,46.22,38.64,0,72.3-19.15,89.28-47.2,18.68,28.2,53.52,47.2,93.33,47.2,39.62,0,74.32-18.82,93.07-46.79,16.72,27.8,50,46.79,88.23,46.79s71.52-19,88.24-46.79c18.75,28,53.45,46.79,93.07,46.79,39.81,0,74.65-19,93.33-47.2,17,28,50.64,47.2,89.29,47.2,38.2,0,71.51-18.7,88.68-46.22,18.11,27.6,52.1,46.22,90.95,46.22s72.61-18.5,90.77-45.95c17,27.35,50.07,45.95,88,45.95,55.23,0,100.17-39.44,100.17-87.91v-66.15A13.16,13.16,0,0,0,2385.91,1429.26Z" style="fill:#6d4c41"/></g><g style="opacity:0.2"><rect x="860.5" y="1919.63" width="544.69" height="83.13" rx="38.44" style="fill:#6d4c41"/></g><g style="opacity:0.5"><polygon points="860.5 718.69 2293.31 718.69 2293.31 716.5 836.44 716.5 836.44 2116.5 860.5 2116.5 860.5 718.69" style="fill:#fff"/></g><g style="opacity:0.2"><polygon points="823.31 703.38 823.31 705.56 2247.38 705.56 2247.38 723.06 821.13 723.06 821.13 771.19 2247.38 797.44 2247.38 2129.63 2306.44 2129.63 2306.44 703.38 823.31 703.38" style="fill:#6d4c41"/></g><rect x="755.5" y="626.81" width="1605.63" height="96.25" rx="48.12" style="fill:#707070"/><path d="M2313,736.19H803.62a61.25,61.25,0,1,1,0-122.5H2313a61.25,61.25,0,0,1,0,122.5ZM803.62,639.94a35,35,0,1,0,0,70H2313a35,35,0,0,0,0-70Z" style="fill:#6d4c41"/><g style="opacity:0.5"><path d="M786.12,688.06a35,35,0,0,1,35-35H2330.5a35,35,0,0,1,11.17,1.86,35,35,0,0,0-28.67-15H803.62a35,35,0,0,0-11.17,68.14A34.83,34.83,0,0,1,786.12,688.06Z" style="fill:#fff"/></g><rect x="908.62" y="821.5" width="277.54" height="240.63" rx="21.29" style="fill:#80deea"/><path d="M1164.88,1073.06h-235a32.25,32.25,0,0,1-32.22-32.22v-198a32.26,32.26,0,0,1,32.22-32.23h235a32.26,32.26,0,0,1,32.22,32.23v198A32.25,32.25,0,0,1,1164.88,1073.06Zm-235-240.62a10.36,10.36,0,0,0-10.35,10.35v198a10.36,10.36,0,0,0,10.35,10.35h235a10.36,10.36,0,0,0,10.35-10.35v-198a10.36,10.36,0,0,0-10.35-10.35Z" style="fill:#6d4c41"/><rect x="1249.24" y="821.5" width="277.54" height="240.63" rx="21.29" style="fill:#80deea"/><path d="M1505.49,1073.06h-235a32.25,32.25,0,0,1-32.22-32.22v-198a32.26,32.26,0,0,1,32.22-32.23h235a32.26,32.26,0,0,1,32.22,32.23v198A32.25,32.25,0,0,1,1505.49,1073.06Zm-235-240.62a10.36,10.36,0,0,0-10.34,10.35v198a10.36,10.36,0,0,0,10.34,10.35h235a10.36,10.36,0,0,0,10.35-10.35v-198a10.36,10.36,0,0,0-10.35-10.35Z" style="fill:#6d4c41"/><rect x="1589.85" y="821.5" width="277.54" height="240.63" rx="21.29" style="fill:#80deea"/><path d="M1846.1,1073.06h-235a32.26,32.26,0,0,1-32.22-32.22v-198a32.27,32.27,0,0,1,32.22-32.23h235a32.27,32.27,0,0,1,32.23,32.23v198A32.26,32.26,0,0,1,1846.1,1073.06Zm-235-240.62a10.36,10.36,0,0,0-10.34,10.35v198a10.36,10.36,0,0,0,10.34,10.35h235a10.36,10.36,0,0,0,10.35-10.35v-198a10.36,10.36,0,0,0-10.35-10.35Z" style="fill:#6d4c41"/><rect x="1930.46" y="821.5" width="277.54" height="240.63" rx="21.29" style="fill:#80deea"/><path d="M2186.71,1073.06h-235a32.25,32.25,0,0,1-32.22-32.22v-198a32.26,32.26,0,0,1,32.22-32.23h235a32.27,32.27,0,0,1,32.23,32.23v198A32.26,32.26,0,0,1,2186.71,1073.06Zm-235-240.62a10.36,10.36,0,0,0-10.35,10.35v198a10.36,10.36,0,0,0,10.35,10.35h235a10.36,10.36,0,0,0,10.35-10.35v-198a10.36,10.36,0,0,0-10.35-10.35Z" style="fill:#6d4c41"/><rect x="900.95" y="1595.88" width="463.79" height="367.5" rx="16" style="fill:#80deea"/><path d="M1348.74,1974.31H916.94A27,27,0,0,1,890,1947.38V1611.87a27,27,0,0,1,26.92-26.93h431.8a27,27,0,0,1,26.93,26.93v335.51A27,27,0,0,1,1348.74,1974.31Zm-431.8-367.5a5.07,5.07,0,0,0-5.05,5.06v335.51a5.06,5.06,0,0,0,5.05,5.06h431.8a5.07,5.07,0,0,0,5.06-5.06V1611.87a5.07,5.07,0,0,0-5.06-5.06Z" style="fill:#6d4c41"/><g style="clip-path:url(#clip-path)"><rect x="1033.65" y="1332.81" width="117.11" height="704.21" transform="translate(1267.16 -315.4) rotate(37.95)" style="opacity:0.6000000000000001;fill:url(#linear-gradient)"/><rect x="1184.78" y="1462.18" width="64.18" height="704.21" transform="matrix(0.79, 0.61, -0.61, 0.79, 1373.08, -364.71)" style="opacity:0.6000000000000001;fill:url(#linear-gradient-2)"/></g><g style="opacity:0.2"><path d="M902.15,1668.75a16,16,0,0,1,16-16h431.8a16,16,0,0,1,14.8,10v-50.85a16,16,0,0,0-16-16H917a16,16,0,0,0-16,16v335.51a15.9,15.9,0,0,0,1.2,6Z" style="fill:#6d4c41"/></g><rect x="871.44" y="1908.69" width="522.81" height="61.25" rx="27.5" style="fill:#fff"/><path d="M1366.75,1980.88H898.94a38.49,38.49,0,0,1-38.44-38.45v-6.24a38.48,38.48,0,0,1,38.44-38.44h467.81a38.48,38.48,0,0,1,38.44,38.44v6.24A38.49,38.49,0,0,1,1366.75,1980.88Zm-467.81-61.25a16.59,16.59,0,0,0-16.57,16.56v6.24A16.59,16.59,0,0,0,898.94,1959h467.81a16.58,16.58,0,0,0,16.56-16.57v-6.24a16.58,16.58,0,0,0-16.56-16.56Z" style="fill:#6d4c41"/><g style="opacity:0.2"><path d="M1366.75,1943.69H898.94a27.5,27.5,0,0,1-25.6-17.5,27.45,27.45,0,0,0-1.9,10v6.24a27.51,27.51,0,0,0,27.5,27.51h467.81a27.51,27.51,0,0,0,27.5-27.51v-6.24a27.45,27.45,0,0,0-1.9-10A27.52,27.52,0,0,1,1366.75,1943.69Z" style="fill:#6d4c41"/></g><g style="opacity:0.2"><rect x="1704.88" y="1919.63" width="544.69" height="83.12" rx="38.44" style="fill:#6d4c41"/></g><rect x="1745.33" y="1595.88" width="463.79" height="367.5" rx="16" style="fill:#80deea"/><path d="M2193.12,1974.31h-431.8a27,27,0,0,1-26.93-26.93V1611.87a27,27,0,0,1,26.93-26.93h431.8a27,27,0,0,1,26.93,26.93v335.51A27,27,0,0,1,2193.12,1974.31Zm-431.8-367.5a5.06,5.06,0,0,0-5,5.06v335.51a5.06,5.06,0,0,0,5,5.06h431.8a5.06,5.06,0,0,0,5.05-5.06V1611.87a5.07,5.07,0,0,0-5.05-5.06Z" style="fill:#6d4c41"/><g style="clip-path:url(#clip-path-2)"><rect x="1878.03" y="1332.81" width="117.11" height="704.21" transform="translate(1445.71 -834.68) rotate(37.95)" style="opacity:0.6000000000000001;fill:url(#linear-gradient-3)"/><rect x="2029.16" y="1462.18" width="64.18" height="704.21" transform="translate(1551.64 -883.99) rotate(37.95)" style="opacity:0.6000000000000001;fill:url(#linear-gradient-4)"/></g><rect x="1446.75" y="1589.31" width="223.13" height="455" rx="16.15" style="fill:#80deea"/><path d="M1653.72,2055.25H1462.9a27.12,27.12,0,0,1-27.09-27.09v-422.7a27.12,27.12,0,0,1,27.09-27.08h190.82a27.12,27.12,0,0,1,27.09,27.08v422.7A27.12,27.12,0,0,1,1653.72,2055.25Zm-190.82-455a5.22,5.22,0,0,0-5.21,5.21v422.7a5.22,5.22,0,0,0,5.21,5.22h190.82a5.22,5.22,0,0,0,5.22-5.22v-422.7a5.22,5.22,0,0,0-5.22-5.21Z" style="fill:#6d4c41"/><rect x="748.94" y="2039.94" width="1596.88" height="94.06" rx="47.03" style="fill:#ececec"/><path d="M2298.78,2147.13H796a60.16,60.16,0,0,1,0-120.32H2298.78a60.16,60.16,0,0,1,0,120.32ZM796,2053.06a33.91,33.91,0,0,0,0,67.82H2298.78a33.91,33.91,0,0,0,0-67.82Z" style="fill:#6d4c41"/><path d="M779.56,2104.47a34,34,0,0,1,33.91-33.91H2316.28a33.74,33.74,0,0,1,13.56,2.85,33.94,33.94,0,0,0-31.06-20.35H796a33.9,33.9,0,0,0-13.56,65A33.74,33.74,0,0,1,779.56,2104.47Z" style="fill:#fff"/><g style="opacity:0.2"><path d="M1941.13,2048.69S1587.92,2143.13,767,2122.16H2348l-4.37-73.47-76.85-7.76Z" style="fill:#6d4c41"/></g><path d="M810.19,871.81H748.94a15.31,15.31,0,1,1,0-30.62h61.25a15.31,15.31,0,0,1,0,30.62Z" style="fill:#6d4c41"/><path d="M810.19,1173.69H748.94a15.32,15.32,0,1,1,0-30.63h61.25a15.32,15.32,0,0,1,0,30.63Z" style="fill:#6d4c41"/><path d="M2347.11,1981.31H2426a23.29,23.29,0,0,1,23.29,23.29v131.59a0,0,0,0,1,0,0H2323.82a0,0,0,0,1,0,0V2004.6A23.29,23.29,0,0,1,2347.11,1981.31Z" style="fill:#fff"/><path d="M2449.29,2147.13H2323.81a10.93,10.93,0,0,1-10.93-10.94V2004.6a34.27,34.27,0,0,1,34.23-34.23H2426a34.27,34.27,0,0,1,34.23,34.23v131.59A10.94,10.94,0,0,1,2449.29,2147.13Zm-114.54-21.88h103.6V2004.6a12.37,12.37,0,0,0-12.35-12.36h-78.89a12.37,12.37,0,0,0-12.36,12.36Z" style="fill:#6d4c41"/><path d="M2385.71,1986.37a10.94,10.94,0,0,1-10.94-10.94v-88.82a10.94,10.94,0,0,1,21.88,0v88.82A10.94,10.94,0,0,1,2385.71,1986.37Z" style="fill:#6d4c41"/><path d="M2425.36,1720.56a94,94,0,0,0-91.11,71.12,69.91,69.91,0,1,0,46.65,105.78,94,94,0,1,0,44.46-176.9Z" style="fill:#8bc34a"/><path d="M2321.68,1941.27a80.86,80.86,0,1,1,0-161.72c1.57,0,3.16,0,4.76.15a104.89,104.89,0,1,1,58,131.58A80.3,80.3,0,0,1,2321.68,1941.27Zm0-139.85a59,59,0,1,0,50,90.23,11,11,0,0,1,14.45-3.82,83.13,83.13,0,1,0-41.22-93.49,11,11,0,0,1-12.57,8.1A59.1,59.1,0,0,0,2321.68,1801.42Z" style="fill:#6d4c41"/><g style="opacity:0.2"><path d="M2495.67,1752.31A94,94,0,0,1,2359,1853.71a69.71,69.71,0,0,1-106.88,14,69.86,69.86,0,0,0,128.76,29.74,94,94,0,0,0,114.77-145.15Z" style="fill:#6d4c41"/></g><g style="opacity:0.5"><path d="M2271.44,1873.54a59.05,59.05,0,0,1,59-59,58.14,58.14,0,0,1,10.62,1,11,11,0,0,0,12.57-8.11,83,83,0,0,1,145-32,83,83,0,0,0-153.75,18.9,10.94,10.94,0,0,1-12.57,8.1,58.88,58.88,0,0,0-54.84,96.88A58.56,58.56,0,0,1,2271.44,1873.54Z" style="fill:#fff"/></g><path d="M2305.23,1781.88a52.87,52.87,0,0,1,10,1.29,72.51,72.51,0,0,1,9.05,2.53,61.45,61.45,0,0,1,16.41,8.64,45.47,45.47,0,0,1,12.12,13.23c3.23,4.91,4.85,10.5,6.15,15.8-3-4.66-6.15-9.06-10.32-12.25a37.08,37.08,0,0,0-13.15-7.16,48,48,0,0,0-14.32-2.15,54.69,54.69,0,0,0-7.15.46,30.15,30.15,0,0,0-6.35,1.35,11.31,11.31,0,1,1-3.93-21.79Z" style="fill:#6d4c41"/><g style="opacity:0.2"><path d="M2422.38,1991.81s-2.71,122.88-96.25,118.13l-2.71,32.81h127.39l-4.37-153.12Z" style="fill:#6d4c41"/></g><path d="M2256.55,1168.4a30.75,30.75,0,0,0-27.31-16.62H900.51a30.75,30.75,0,0,0-27.31,16.62L755.5,1395.91v66.16c0,41.3,39,74.78,87,74.78s87.05-33.48,87.05-74.78v-4c0,43.52,41.07,78.81,91.73,78.81h0c50.67,0,91.74-35.29,91.74-78.81v3.29c0,41.71,39.35,75.52,87.89,75.52s87.9-33.81,87.9-75.52v-5.86c0,44.94,42.41,81.38,94.72,81.38h0c52.32,0,94.73-36.44,94.73-81.38v7c0,41.08,38.76,74.38,86.57,74.38s86.58-33.3,86.58-74.38v-7c0,44.94,42.41,81.38,94.73,81.38h0c52.31,0,94.72-36.44,94.72-81.38v5.86c0,41.71,39.35,75.52,87.9,75.52s87.89-33.81,87.89-75.52V1458c0,43.52,41.07,78.81,91.74,78.81h0c50.66,0,91.73-35.29,91.73-78.81v4c0,41.3,39,74.78,87.05,74.78s87-33.48,87-74.78v-66.16Z" style="fill:#f75c4c"/><path d="M2287.21,1550c-37.93,0-71-18.59-88-45.94-18.15,27.44-52,45.94-90.77,45.94s-72.84-18.61-90.95-46.21c-17.17,27.51-50.49,46.21-88.69,46.21-38.65,0-72.3-19.14-89.28-47.19C1820.83,1531,1786,1550,1746.18,1550c-39.62,0-74.32-18.81-93.07-46.78-16.72,27.79-50,46.78-88.24,46.78s-71.51-19-88.23-46.78c-18.75,28-53.45,46.78-93.06,46.78-39.81,0-74.66-19-93.34-47.19-17,28-50.63,47.19-89.29,47.19-38.2,0-71.51-18.7-88.68-46.21-18.11,27.59-52.1,46.21-90.95,46.21s-72.61-18.5-90.77-45.94c-17,27.35-50.08,45.94-88,45.94-55.23,0-100.17-39.43-100.17-87.9v-66.16a13.19,13.19,0,0,1,1.47-6l117.7-227.51a43.72,43.72,0,0,1,39-23.72H2229.24a43.72,43.72,0,0,1,39,23.72h0l117.69,227.51a13.07,13.07,0,0,1,1.47,6v66.16C2387.37,1510.54,2342.44,1550,2287.21,1550ZM2213.29,1458v4c0,34,33.16,61.65,73.92,61.65s73.91-27.65,73.91-61.65v-63L2244.9,1174.43a17.58,17.58,0,0,0-15.66-9.53H900.51a17.6,17.6,0,0,0-15.66,9.53L768.62,1399.1v63c0,34,33.16,61.65,73.92,61.65s73.92-27.65,73.92-61.65v-4a13.13,13.13,0,1,1,26.25,0c0,36.22,35.26,65.68,78.61,65.68s78.61-29.46,78.61-65.68a13.13,13.13,0,1,1,26.25,0v3.3c0,34.4,33.54,62.38,74.77,62.38s74.77-28,74.77-62.38v-5.87a13.13,13.13,0,1,1,26.25,0c0,37.63,36.61,68.25,81.61,68.25s81.59-30.62,81.59-68.25a13.13,13.13,0,1,1,26.25,0v7c0,33.78,32.95,61.26,73.45,61.26s73.46-27.48,73.46-61.26v-7a13.13,13.13,0,1,1,26.25,0c0,37.63,36.61,68.25,81.6,68.25s81.59-30.62,81.59-68.25a13.13,13.13,0,1,1,26.25,0v5.87c0,34.4,33.54,62.38,74.77,62.38s74.78-28,74.78-62.38V1458a13.13,13.13,0,1,1,26.25,0c0,36.22,35.26,65.68,78.61,65.68S2187,1494.26,2187,1458a13.13,13.13,0,1,1,26.25,0Z" style="fill:#6d4c41"/><path d="M1288.85,1395.91v59.56c0,44.94,42.41,81.38,94.72,81.38h0c52.32,0,94.73-36.44,94.73-81.38v-59.56l12.8-244.13H1329.81Z" style="fill:#fff"/><path d="M1383.58,1547.79c-58.27,0-105.67-41.42-105.67-92.32v-59.56a11.05,11.05,0,0,1,.15-1.81L1319,1150a11,11,0,0,1,10.79-9.13h161.28a10.94,10.94,0,0,1,10.93,11.51l-12.79,243.85v59.27C1489.23,1506.37,1441.84,1547.79,1383.58,1547.79Zm-83.79-151v58.65c0,38.84,37.58,70.44,83.79,70.44s83.78-31.6,83.78-70.44v-59.56c0-.19,0-.38,0-.57l12.2-232.62H1339.06Z" style="fill:#6d4c41"/><path d="M929.59,1395.91V1458c0,43.52,41.07,78.81,91.73,78.81h0c50.67,0,91.74-35.29,91.74-78.81v-62.13l64.43-244.13H1032Z" style="fill:#fff"/><path d="M1021.32,1547.79c-56.61,0-102.67-40.27-102.67-89.75v-62.13a11,11,0,0,1,.85-4.23l102.4-244.13a10.93,10.93,0,0,1,10.09-6.71h145.5a10.93,10.93,0,0,1,10.57,13.73L1124,1397.33V1458C1124,1507.52,1077.94,1547.79,1021.32,1547.79Zm-80.8-149.68V1458c0,37.42,36.25,67.87,80.8,67.87s80.8-30.45,80.8-67.87v-62.13a11,11,0,0,1,.36-2.79l60.81-230.4h-124Z" style="fill:#6d4c41"/><path d="M1638.65,1151.78l12.8,244.13v59.56c0,44.94,42.41,81.38,94.73,81.38h0c52.31,0,94.72-36.44,94.72-81.38v-59.56l-41-244.13Z" style="fill:#fff"/><path d="M1746.18,1547.79c-58.26,0-105.66-41.42-105.66-92.32v-59.28l-12.79-243.84a10.94,10.94,0,0,1,10.92-11.51h161.29a10.93,10.93,0,0,1,10.78,9.13l41,244.13a11.05,11.05,0,0,1,.15,1.81v59.56C1851.84,1506.37,1804.44,1547.79,1746.18,1547.79Zm-96-385.07,12.2,232.62c0,.19,0,.38,0,.57v59.56c0,38.84,37.59,70.44,83.79,70.44s83.78-31.6,83.78-70.44v-58.65l-39.28-234.1Z" style="fill:#6d4c41"/><path d="M1952.26,1151.78l64.43,244.13V1458c0,43.52,41.07,78.81,91.74,78.81h0c50.66,0,91.73-35.29,91.73-78.81v-62.13l-102.4-244.13Z" style="fill:#fff"/><path d="M2108.43,1547.79c-56.62,0-102.68-40.27-102.68-89.75v-60.71l-64.06-242.76a10.92,10.92,0,0,1,10.57-13.73h145.5a11,11,0,0,1,10.09,6.71l102.4,244.13a10.8,10.8,0,0,1,.85,4.23V1458C2211.1,1507.52,2165,1547.79,2108.43,1547.79Zm-142-385.07,60.81,230.4a11,11,0,0,1,.36,2.79V1458c0,37.42,36.24,67.87,80.8,67.87s80.8-30.45,80.8-67.87v-59.93l-98.74-235.39Z" style="fill:#6d4c41"/><path d="M1113.06,1395.91v65.42c0,41.71,39.35,75.52,87.89,75.52s87.9-33.81,87.9-75.52v-65.42l41-244.13H1177.49Z" style="fill:#f75c4c"/><path d="M1201,1547.79c-54.49,0-98.83-38.78-98.83-86.45v-65.43a11,11,0,0,1,.36-2.79L1166.91,1149a11,11,0,0,1,10.58-8.15h152.32a10.94,10.94,0,0,1,10.79,12.75l-40.81,243.23v64.52C1299.79,1509,1255.45,1547.79,1201,1547.79Zm-77-150.46v64c0,35.6,34.52,64.57,77,64.57s77-29,77-64.57v-65.43a11.05,11.05,0,0,1,.15-1.81l38.83-231.38h-131Z" style="fill:#6d4c41"/><g style="opacity:0.5"><path d="M1141.5,1470.09v-64l61.91-234.61h112l1.46-8.75h-131L1124,1397.33v64c0,26.69,19.4,49.65,47,59.47C1153.07,1509,1141.5,1490.66,1141.5,1470.09Z" style="fill:#fff"/></g><path d="M755.5,1395.91v66.16c0,41.3,39,74.78,87,74.78s87.05-33.48,87.05-74.78v-66.16L1032,1151.78H900.51a30.75,30.75,0,0,0-27.31,16.62Z" style="fill:#f75c4c"/><path d="M842.54,1547.79c-54,0-98-38.46-98-85.72v-66.16a10.94,10.94,0,0,1,1.22-5l117.7-227.52a41.56,41.56,0,0,1,37-22.53H1032a10.95,10.95,0,0,1,10.09,15.17l-101.56,242.1v64C940.52,1509.33,896.57,1547.79,842.54,1547.79Zm-76.1-149.22v63.5c0,35.2,34.14,63.84,76.1,63.84s76.11-28.64,76.11-63.84v-66.16a11,11,0,0,1,.85-4.23l96-229h-115a19.72,19.72,0,0,0-17.59,10.71Z" style="fill:#6d4c41"/><g style="opacity:0.5"><path d="M779.56,1470.82v-63.5L896,1182.18a19.74,19.74,0,0,1,17.6-10.71h98.23l3.67-8.75h-115a19.75,19.75,0,0,0-17.6,10.71L766.44,1398.57v63.5c0,22.65,14.18,42.53,35.44,53.87C788.1,1504.38,779.56,1488.42,779.56,1470.82Z" style="fill:#fff"/></g><path d="M1799.94,1151.78l41,244.13v65.42c0,41.71,39.35,75.52,87.9,75.52s87.89-33.81,87.89-75.52v-65.42l-64.43-244.13Z" style="fill:#f75c4c"/><path d="M1928.79,1547.79c-54.49,0-98.83-38.78-98.83-86.45v-64.52l-40.81-243.23a10.94,10.94,0,0,1,10.79-12.75h152.32a11,11,0,0,1,10.58,8.15l64.43,244.13a11,11,0,0,1,.36,2.79v65.43C2027.63,1509,1983.29,1547.79,1928.79,1547.79Zm-115.93-385.07,38.83,231.38a11.05,11.05,0,0,1,.15,1.81v65.43c0,35.6,34.52,64.57,77,64.57s77-29,77-64.57v-64l-61.92-234.61Z" style="fill:#6d4c41"/><g style="opacity:0.5"><path d="M1869.34,1470.09v-65.43a11,11,0,0,0-.15-1.81l-38.83-231.38h115.79l-2.31-8.75h-131l38.83,231.38a11,11,0,0,1,.15,1.81v65.43c0,26.69,19.4,49.65,47,59.47C1880.91,1509,1869.34,1490.66,1869.34,1470.09Z" style="fill:#fff"/></g><path d="M2229.24,1151.78H2097.76l102.4,244.13v66.16c0,41.3,39,74.78,87.05,74.78s87-33.48,87-74.78v-66.16l-117.7-227.51A30.75,30.75,0,0,0,2229.24,1151.78Z" style="fill:#f75c4c"/><path d="M2287.21,1547.79c-54,0-98-38.46-98-85.72v-64L2087.67,1156a10.94,10.94,0,0,1,10.09-15.17h131.48a41.55,41.55,0,0,1,37,22.54L2384,1390.89a10.94,10.94,0,0,1,1.22,5v66.16C2385.19,1509.33,2341.23,1547.79,2287.21,1547.79Zm-173-385.07,96,229a10.8,10.8,0,0,1,.85,4.23v66.16c0,35.2,34.15,63.84,76.11,63.84s76.1-28.64,76.1-63.84v-63.5l-116.47-225.14a19.74,19.74,0,0,0-17.6-10.71Z" style="fill:#6d4c41"/><g style="opacity:0.5"><path d="M2228.6,1470.82v-66.16a11,11,0,0,0-.85-4.23l-96-229h113.93a19.69,19.69,0,0,0-16.4-8.75h-115l96,229a11,11,0,0,1,.85,4.23v66.16c0,26.41,19.23,49.13,46.55,58.83C2240,1509.2,2228.6,1491.12,2228.6,1470.82Z" style="fill:#fff"/></g><path d="M1491.1,1151.78l-12.8,244.13v66.56c0,41.08,38.76,74.38,86.57,74.38s86.58-33.3,86.58-74.38v-66.56l-12.8-244.13Z" style="fill:#f75c4c"/><path d="M1564.87,1547.79c-53.77,0-97.51-38.28-97.51-85.33v-66.55c0-.19,0-.38,0-.57l12.8-244.14a10.93,10.93,0,0,1,10.92-10.36h147.56a11,11,0,0,1,10.93,10.36l12.8,244.14c0,.19,0,.38,0,.57v66.55C1662.39,1509.51,1618.65,1547.79,1564.87,1547.79Zm-75.64-151.59v66.26c0,35,33.93,63.45,75.64,63.45s75.65-28.46,75.65-63.45V1396.2l-12.25-233.48H1501.48Z" style="fill:#6d4c41"/><g style="opacity:0.5"><path d="M1506.73,1471.22V1405L1519,1171.47h109.75l-.46-8.75H1501.48l-12.25,233.48v66.27c0,26.26,19.13,48.84,46.31,58.47C1518,1509.31,1506.73,1491.37,1506.73,1471.22Z" style="fill:#fff"/></g><path d="M2364.12,1409H765.63a10.94,10.94,0,1,1,0-21.87H2364.12a10.94,10.94,0,0,1,0,21.87Z" style="fill:#6d4c41"/><g style="opacity:0.30000000000000004"><path d="M751.12,1396.81H2378.63v56.88l-12.43,44.67-33.51,36.27-56.88-4.38-59.08-20.49-7.6-17.74-12.07-5.52s-27,29.25-31,32.12-82.76,24.76-82.76,24.76l-51.5-40-8.87-17.73-34.2,29.13-67.13,20.27-40.53-11.4-42.77-37.19-38.3,37.19L1746.44,1539l-56.62-16.58-30.88-27.17-18.52,8.17-42.73,22.46-66.2,4.14-31.67-21.53-20.26-17.61-39.37,21.87-41.7,21.07L1325,1519.89l-33.59-29L1278.16,1506l-53.2,27.86-74.73-10.13-38-40.53-25.33,32.93L1020.19,1539l-62.49-26.71-32.93-24.07-38,40.54-68.4,6.33L762.06,1504l-13.12-48.12Z" style="fill:#6d4c41"/></g><path d="M1447.1,1994h222.42a33.17,33.17,0,0,1,33.17,33.17v10.58a0,0,0,0,1,0,0H1413.94a0,0,0,0,1,0,0v-10.58A33.17,33.17,0,0,1,1447.1,1994Z" style="fill:#707070"/><path d="M1702.69,2048.69H1413.94a10.94,10.94,0,0,1-10.94-10.94v-10.58a44.15,44.15,0,0,1,44.1-44.11h222.42a44.15,44.15,0,0,1,44.1,44.11v10.58A10.93,10.93,0,0,1,1702.69,2048.69Zm-277.81-21.88h266.86a22.24,22.24,0,0,0-22.22-21.87H1447.1A22.24,22.24,0,0,0,1424.88,2026.81Z" style="fill:#6d4c41"/><g style="opacity:0.5"><path d="M1455.85,2009.31h222.42a22.3,22.3,0,0,1,5.19.68,22,22,0,0,0-13.94-5H1447.1a22.25,22.25,0,0,0-22.22,21.87h9.25A22.28,22.28,0,0,1,1455.85,2009.31Z" style="fill:#fff"/></g><rect x="587.06" y="786.5" width="161.88" height="441.88" rx="42.07" style="fill:#f75c4c"/><path d="M706.87,1241.5H629.13a55.25,55.25,0,0,1-55.19-55.19V828.57a55.26,55.26,0,0,1,55.19-55.2h77.74a55.26,55.26,0,0,1,55.19,55.2v357.74A55.25,55.25,0,0,1,706.87,1241.5ZM629.13,799.62a29,29,0,0,0-28.94,29v357.74a29,29,0,0,0,28.94,28.94h77.74a29,29,0,0,0,28.94-28.94V828.57a29,29,0,0,0-28.94-29Z" style="fill:#6d4c41"/><path d="M682.69,851.78a37.8,37.8,0,0,0-7.27-4.1,17.48,17.48,0,0,0-6.62-1.52,8.73,8.73,0,0,0-4.53,1,3.59,3.59,0,0,0-1.73,3.3,3.34,3.34,0,0,0,.72,2.12,6.67,6.67,0,0,0,2,1.65,21.09,21.09,0,0,0,2.85,1.36c1.07.43,2.22.83,3.45,1.21q3,1,6.06,2.25a20.14,20.14,0,0,1,5.54,3.21,15.77,15.77,0,0,1,4,5.05,16.9,16.9,0,0,1,1.56,7.71,16.57,16.57,0,0,1-1.69,7.75,15.44,15.44,0,0,1-4.53,5.37,19.34,19.34,0,0,1-6.5,3.14A28.06,28.06,0,0,1,657.28,890a29.35,29.35,0,0,1-9.91-6.94l5-10.84a32.65,32.65,0,0,0,8.31,6.26,18,18,0,0,0,8.15,2.25,10,10,0,0,0,5.06-1.16,4.11,4.11,0,0,0,2.09-3.66,4.3,4.3,0,0,0-.77-2.53,7.54,7.54,0,0,0-2-1.92,13.81,13.81,0,0,0-3-1.45l-3.58-1.24c-2-.64-4-1.37-5.94-2.17a20.6,20.6,0,0,1-5.33-3.13,14.67,14.67,0,0,1-3.86-4.86,16.33,16.33,0,0,1-1.48-7.42,16.64,16.64,0,0,1,1.6-7.59,14.53,14.53,0,0,1,4.3-5.18,18.46,18.46,0,0,1,6.18-3,26.92,26.92,0,0,1,16.62.77,34.73,34.73,0,0,1,8.71,4.69Z" style="fill:#fff"/><path d="M691.72,931.66v56.11H676.79v-24H659.13v24H644.28V931.66h14.85v21.51h17.66V931.66Z" style="fill:#fff"/><path d="M668,1027.19a37.67,37.67,0,0,1,9.19,1.24,24.28,24.28,0,0,1,16.14,13.37q2.76,5.61,2.77,14.37a36.75,36.75,0,0,1-1.29,10.27,26.94,26.94,0,0,1-3.45,7.63,22,22,0,0,1-5,5.34,26,26,0,0,1-6,3.37,28.56,28.56,0,0,1-6.34,1.72,40.94,40.94,0,0,1-6,.49,38.54,38.54,0,0,1-9.15-1.21,24.91,24.91,0,0,1-9.11-4.37,24.47,24.47,0,0,1-7-8.79q-2.81-5.62-2.81-14.45a36.78,36.78,0,0,1,1.29-10.28,26.42,26.42,0,0,1,3.49-7.63,22.43,22.43,0,0,1,5.06-5.33,27.81,27.81,0,0,1,5.94-3.42,28.56,28.56,0,0,1,6.3-1.8A37.4,37.4,0,0,1,668,1027.19Zm-12.68,28.9a30.91,30.91,0,0,0,.72,6.7,18.5,18.5,0,0,0,2.25,5.74,11.75,11.75,0,0,0,3.93,4,12,12,0,0,0,11.56,0,11.85,11.85,0,0,0,3.93-4,18.5,18.5,0,0,0,2.25-5.74,30.91,30.91,0,0,0,.72-6.7,31.74,31.74,0,0,0-.72-6.87,18.07,18.07,0,0,0-2.25-5.7,11.6,11.6,0,0,0-3.93-3.89,12.25,12.25,0,0,0-11.56,0,11.51,11.51,0,0,0-3.93,3.89,18.07,18.07,0,0,0-2.25,5.7A31.74,31.74,0,0,0,655.32,1056.09Z" style="fill:#fff"/><path d="M647.85,1124.32H667.6a36.64,36.64,0,0,1,8.59,1,22.75,22.75,0,0,1,7.42,3.17,16.11,16.11,0,0,1,7.27,14.12,16.14,16.14,0,0,1-2,8.27,17.49,17.49,0,0,1-5.18,5.66,21.93,21.93,0,0,1-7.14,3.25,30.57,30.57,0,0,1-7.83,1h-5.94v19.59H647.85ZM666,1150.25a23.25,23.25,0,0,0,4-.32,8.59,8.59,0,0,0,3.13-1.16,6,6,0,0,0,2.08-2.33,8.32,8.32,0,0,0,.77-3.82,8.51,8.51,0,0,0-.77-3.89,6,6,0,0,0-2.08-2.33,8.21,8.21,0,0,0-3.13-1.12,25.7,25.7,0,0,0-4-.28h-3.13v15.25Z" style="fill:#fff"/><g style="clip-path:url(#clip-path-3)"><rect x="973.11" y="648.1" width="83.89" height="504.45" transform="translate(768.34 -433.86) rotate(37.95)" style="opacity:0.6000000000000001;fill:url(#linear-gradient-5)"/><rect x="1081.37" y="740.77" width="45.97" height="504.45" transform="translate(844.21 -469.18) rotate(37.95)" style="opacity:0.6000000000000001;fill:url(#linear-gradient-6)"/></g><g style="clip-path:url(#clip-path-4)"><rect x="1313.72" y="648.1" width="83.89" height="504.45" transform="translate(840.36 -643.33) rotate(37.95)" style="opacity:0.6000000000000001;fill:url(#linear-gradient-7)"/><rect x="1421.98" y="740.77" width="45.97" height="504.45" transform="translate(916.24 -678.65) rotate(37.95)" style="opacity:0.6000000000000001;fill:url(#linear-gradient-8)"/></g><g style="clip-path:url(#clip-path-5)"><rect x="1654.33" y="648.1" width="83.89" height="504.45" transform="translate(912.39 -852.8) rotate(37.95)" style="opacity:0.6000000000000001;fill:url(#linear-gradient-9)"/><rect x="1762.59" y="740.77" width="45.97" height="504.45" transform="translate(988.27 -888.13) rotate(37.95)" style="opacity:0.6000000000000001;fill:url(#linear-gradient-10)"/></g><g style="clip-path:url(#clip-path-6)"><rect x="1994.95" y="648.1" width="83.89" height="504.45" transform="translate(984.42 -1062.28) rotate(37.95)" style="opacity:0.6000000000000001;fill:url(#linear-gradient-11)"/><rect x="2103.21" y="740.77" width="45.97" height="504.45" transform="translate(1060.29 -1097.6) rotate(37.95)" style="opacity:0.6000000000000001;fill:url(#linear-gradient-12)"/></g><g style="opacity:0.2"><path d="M1164.88,821.5h-235a21.29,21.29,0,0,0-21.29,21.29v56.87a21.28,21.28,0,0,1,21.29-21.28h235a21.28,21.28,0,0,1,21.28,21.28V842.79A21.29,21.29,0,0,0,1164.88,821.5Z" style="fill:#6d4c41"/></g><g style="opacity:0.2"><path d="M1506.13,821.5h-235a21.29,21.29,0,0,0-21.29,21.29v56.87a21.28,21.28,0,0,1,21.29-21.28h235a21.28,21.28,0,0,1,21.28,21.28V842.79A21.29,21.29,0,0,0,1506.13,821.5Z" style="fill:#6d4c41"/></g><g style="opacity:0.2"><path d="M1847.38,821.5h-235a21.29,21.29,0,0,0-21.29,21.29v56.87a21.28,21.28,0,0,1,21.29-21.28h235a21.28,21.28,0,0,1,21.28,21.28V842.79A21.29,21.29,0,0,0,1847.38,821.5Z" style="fill:#6d4c41"/></g><g style="opacity:0.2"><path d="M2188.63,821.5h-235a21.28,21.28,0,0,0-21.28,21.29v56.87a21.27,21.27,0,0,1,21.28-21.28h235a21.28,21.28,0,0,1,21.28,21.28V842.79A21.29,21.29,0,0,0,2188.63,821.5Z" style="fill:#6d4c41"/></g><g style="opacity:0.2"><path d="M1746.52,1668.75a16,16,0,0,1,16-16h431.79a16,16,0,0,1,14.8,10v-50.85a16,16,0,0,0-16-16h-431.8a16,16,0,0,0-16,16v335.51a15.89,15.89,0,0,0,1.19,6Z" style="fill:#6d4c41"/></g><rect x="1715.81" y="1908.69" width="522.81" height="61.25" rx="27.5" style="fill:#fff"/><path d="M2211.12,1980.88h-467.8a38.5,38.5,0,0,1-38.45-38.45v-6.24a38.49,38.49,0,0,1,38.45-38.44h467.8a38.48,38.48,0,0,1,38.44,38.44v6.24A38.49,38.49,0,0,1,2211.12,1980.88Zm-467.8-61.25a16.58,16.58,0,0,0-16.57,16.56v6.24a16.58,16.58,0,0,0,16.57,16.57h467.8a16.59,16.59,0,0,0,16.57-16.57v-6.24a16.59,16.59,0,0,0-16.57-16.56Z" style="fill:#6d4c41"/><g style="opacity:0.2"><path d="M2211.12,1943.69h-467.8a27.49,27.49,0,0,1-25.6-17.5,27.25,27.25,0,0,0-1.91,10v6.24a27.51,27.51,0,0,0,27.51,27.51h467.8a27.51,27.51,0,0,0,27.51-27.51v-6.24a27.45,27.45,0,0,0-1.91-10A27.49,27.49,0,0,1,2211.12,1943.69Z" style="fill:#6d4c41"/></g><rect x="1486.13" y="1746.81" width="17.5" height="70" rx="7.14" style="fill:#6d4c41"/><g style="opacity:0.2"><path d="M571.75,2004.94S589,2120,368.2,2117.14L382,2130.89H604.56l17.5-58.14-17.5-52.5Z" style="fill:#6d4c41"/></g><circle cx="399.13" cy="1815.05" r="21.34" style="fill:#6d4c41"/><circle cx="2686.31" cy="1822.82" r="24.61" style="fill:#6d4c41"/><circle cx="2680.52" cy="545.48" r="20.54" style="fill:#6d4c41"/><path d="M2591.23,414.76c4.74-4.75,1.75-16-6.64-28.79a11.34,11.34,0,0,1,0-12.49c8.39-12.77,11.38-24,6.64-28.79s-16-1.75-28.79,6.64a11.38,11.38,0,0,1-12.49,0c-12.77-8.39-24-11.38-28.79-6.64s-1.75,16,6.64,28.79a11.38,11.38,0,0,1,0,12.49c-8.39,12.77-11.38,24-6.64,28.79s16,1.75,28.79-6.64a11.38,11.38,0,0,1,12.49,0C2575.21,416.51,2586.48,419.5,2591.23,414.76Z" style="fill:#6d4c41"/><path d="M298.36,1706.9c5.46,0,10.22-8.21,12.74-20.38a9.23,9.23,0,0,1,7.18-7.18c12.17-2.52,20.38-7.28,20.38-12.74s-8.21-10.22-20.38-12.74a9.24,9.24,0,0,1-7.18-7.19c-2.52-12.17-7.28-20.37-12.74-20.37s-10.22,8.2-12.74,20.37a9.25,9.25,0,0,1-7.19,7.19c-12.17,2.52-20.37,7.28-20.37,12.74s8.2,10.22,20.37,12.74a9.24,9.24,0,0,1,7.19,7.18C288.14,1698.69,292.9,1706.9,298.36,1706.9Z" style="fill:#6d4c41"/><circle cx="543.62" cy="383.18" r="32.56" style="fill:#6d4c41"/><circle cx="397.91" cy="560.3" r="21.28" style="fill:#6d4c41"/></svg>